#N canvas 1458 123 434 504 10;
#N canvas 944 43 612 905 generator 1;
#X obj 12 762 *~ 0;
#X obj 12 222 osc~;
#X obj 10 170 inlet;
#X obj 540 740 inlet;
#X obj 10 800 outlet~;
#X obj 10 420 *~;
#X obj 180 510 inlet~;
#X obj 10 550 *~;
#X obj 273 183 osc~;
#X floatatom 270 150 4 6 7 0 - - -, f 4;
#X floatatom 160 160 5 0 1 0 - - -, f 5;
#X obj 160 100 hsl 128 15 0 1 0 0 empty empty empty -2 -8 0 10 #fcfcfc
#000000 #000000 0 1;
#X obj 270 310 *~;
#X obj 200 330 +~;
#X obj 279 465 snapshot~;
#X obj 313 438 bng 15 250 50 0 empty empty empty 17 7 0 10 #fcfcfc
#000000 #000000;
#X obj 336 363 loadbang;
#X obj 336 385 bng 15 250 50 0 empty empty empty 17 7 0 10 #fcfcfc
#000000 #000000;
#X obj 337 405 metro 100;
#X obj 280 500 print 2;
#X obj 190 250 sig~;
#X obj 160 200 expr 0.5+(0.5*$f1);
#X floatatom 150 290 5 0 0 0 - - -, f 5;
#X floatatom 350 260 5 0 0 0 - - -, f 5;
#X obj 308 233 expr 0.5-($f1*0.5);
#X obj 140 130 expr 1-$f1;
#X obj 300 260 sig~;
#X connect 0 0 4 0;
#X connect 1 0 5 0;
#X connect 2 0 1 0;
#X connect 3 0 0 1;
#X connect 5 0 7 0;
#X connect 6 0 7 1;
#X connect 7 0 0 0;
#X connect 8 0 12 1;
#X connect 9 0 8 0;
#X connect 10 0 21 0;
#X connect 10 0 24 0;
#X connect 11 0 25 0;
#X connect 12 0 13 1;
#X connect 13 0 5 1;
#X connect 15 0 14 0;
#X connect 16 0 17 0;
#X connect 17 0 18 0;
#X connect 18 0 15 0;
#X connect 20 0 13 0;
#X connect 21 0 20 0;
#X connect 21 0 22 0;
#X connect 24 0 23 0;
#X connect 24 0 26 0;
#X connect 25 0 10 0;
#X connect 26 0 12 0;
#X restore 40 260 pd generator;
#X floatatom 40 155 5 0 0 0 - - -, f 5;
#X obj 150 280 tgl 15 0 empty empty empty 17 7 0 10 #fcfcfc #000000
#000000 1 1;
#X obj 40 300 dac~;
#X obj 43 59 notein;
#X obj 44 114 mtof;
#X obj 94 124 / 127;
#X floatatom 91 153 5 0 1 0 - - -, f 5;
#N canvas -32000 -32000 144 0 ADSR 1;
#X obj 273 -388 inlet;
#X obj 252 167 snapshot~;
#X obj 286 140 bng 15 250 50 0 empty empty empty 17 7 0 10 #fcfcfc
#000000 #000000;
#X obj 309 65 loadbang;
#X obj 309 87 bng 15 250 50 0 empty empty empty 17 7 0 10 #fcfcfc #000000
#000000;
#X obj 310 107 metro 100;
#X floatatom 503 92 5 0 0 0 - - -, f 5;
#X obj 503 52 hsl 128 15 10 10000 0 0 empty empty empty -2 -8 0 10
#fcfcfc #000000 #000000 5900 1;
#X obj 343 -188 * 0.9;
#X floatatom 343 -158 5 0 0 0 - - -, f 5;
#X obj 263 -168 f;
#X floatatom 293 -158 5 0 0 0 - - -, f 5;
#X obj 333 -228 f;
#X obj 283 -268 t b b f f;
#X obj 273 -58 vline~;
#X obj 253 202 print 2;
#X obj 273 -328 sel 0;
#X obj 473 -198 bng 15 250 50 0 empty empty empty 17 7 0 10 #fcfcfc
#000000 #000000;
#X msg 493 142 0 \$1 0;
#X text 533 32 Release;
#X obj 373 -338 hsl 128 15 0 1 0 0 empty empty empty -2 -8 0 10 #fcfcfc
#000000 #000000 6800 1;
#X floatatom 423 -288 5 0 0 0 - - -, f 5;
#X text 423 -358 Sustain;
#X obj 545 -252 hsl 128 15 10 10000 0 0 empty empty empty -2 -8 0 10
#fcfcfc #000000 #000000 4500 1;
#X text 573 -268 Attack;
#X floatatom 543 -208 5 0 0 0 - - -, f 5;
#X obj 545 -142 hsl 128 15 10 10000 0 0 empty empty empty -2 -8 0 10
#fcfcfc #000000 #000000 4600 1;
#X floatatom 543 -98 5 0 0 0 - - -, f 5;
#X text 573 -158 Decay;
#X msg 293 -98 \$1 \$3 \, \$2 \$4 \$3;
#X obj 303 -128 pack f f f f;
#X obj 170 30 outlet~;
#X connect 0 0 16 0;
#X connect 2 0 1 0;
#X connect 3 0 4 0;
#X connect 4 0 5 0;
#X connect 5 0 2 0;
#X connect 6 0 18 0;
#X connect 7 0 6 0;
#X connect 8 0 9 0;
#X connect 9 0 30 1;
#X connect 10 0 11 0;
#X connect 10 0 30 0;
#X connect 12 0 8 0;
#X connect 13 0 10 0;
#X connect 13 1 12 0;
#X connect 13 2 10 1;
#X connect 13 3 12 1;
#X connect 14 0 1 0;
#X connect 14 0 31 0;
#X connect 16 0 17 0;
#X connect 16 1 13 0;
#X connect 17 0 7 0;
#X connect 18 0 14 0;
#X connect 20 0 21 0;
#X connect 21 0 8 1;
#X connect 23 0 25 0;
#X connect 25 0 30 2;
#X connect 26 0 27 0;
#X connect 27 0 30 3;
#X connect 29 0 14 0;
#X connect 30 0 29 0;
#X restore 90 210 pd ADSR;
#X connect 0 0 3 0;
#X connect 0 0 3 1;
#X connect 1 0 0 0;
#X connect 2 0 0 2;
#X connect 4 0 5 0;
#X connect 4 1 6 0;
#X connect 5 0 1 0;
#X connect 6 0 7 0;
#X connect 7 0 8 0;
#X connect 8 0 0 1;
