#N canvas 1421 661 450 300 10;
#X obj 80 80 osc~ 440;
#X obj 80 120 dac~;
#X floatatom 80 50 5 0 0 0 - - -, f 5;
#X obj 70 10 hsl 128 15 0 127 0 0 empty empty empty -2 -8 0 10 #fcfcfc
#000000 #000000 3050 1;
#X connect 0 0 1 0;
#X connect 2 0 0 0;
#X connect 3 0 2 0;
