#N canvas 1312 435 450 300 10;
#X floatatom 30 120 5 0 0 0 - - -, f 5;
#X obj 30 70 hsl 128 15 0 127 0 0 empty empty empty -2 -8 0 10 #fcfcfc
#000000 #000000 12700 1;
#X obj 200 140 tgl 15 0 empty empty empty 17 7 0 10 #fcfcfc #000000
#000000 1 1;
#X obj 170 0 vsl 15 101 0 1 0 0 empty empty empty 0 -9 0 10 #fcfcfc
#000000 #000000 10000 1;
#X obj 40 230 dac~;
#X obj 40 190 L1z3c4;
#X floatatom 253 122 5 0 0 0 - - -, f 5;
#X obj 253 72 hsl 128 15 0 127 0 0 empty empty empty -2 -8 0 10 #fcfcfc
#000000 #000000 10600 1;
#X obj 423 142 tgl 15 0 empty empty empty 17 7 0 10 #fcfcfc #000000
#000000 1 1;
#X obj 393 2 vsl 15 101 0 1 0 0 empty empty empty 0 -9 0 10 #fcfcfc
#000000 #000000 5700 1;
#X obj 263 192 L1z3c4;
#X connect 0 0 5 0;
#X connect 1 0 0 0;
#X connect 2 0 5 2;
#X connect 3 0 5 1;
#X connect 5 0 4 0;
#X connect 6 0 10 0;
#X connect 7 0 6 0;
#X connect 8 0 10 2;
#X connect 9 0 10 1;
#X connect 10 0 4 1;
