#N canvas 842 419 450 300 10;
#X obj 92 82 *~ 0;
#X obj 92 42 *~ 0;
#X obj 92 2 osc~;
#X obj 90 -50 inlet;
#X obj 150 0 inlet;
#X obj 190 40 inlet;
#X obj 90 120 outlet~;
#X connect 0 0 6 0;
#X connect 1 0 0 0;
#X connect 2 0 1 0;
#X connect 3 0 2 0;
#X connect 4 0 1 1;
#X connect 5 0 0 1;
