#N canvas 1478 514 450 300 10;
#X obj 80 80 osc~ 440;
#X obj 80 200 dac~;
#X floatatom 80 50 5 0 0 0 - - -, f 5;
#X obj 70 10 hsl 128 15 0 127 0 0 empty empty empty -2 -8 0 10 #fcfcfc
#000000 #000000 12700 1;
#X obj 80 160 *~ 0;
#X obj 150 150 tgl 15 0 empty empty empty 17 7 0 10 #fcfcfc #000000
#000000 1 1;
#X obj 80 120 *~ 0;
#X obj 230 50 vsl 15 101 0 1 0 0 empty empty empty 0 -9 0 10 #fcfcfc
#000000 #000000 10000 1;
#X connect 0 0 6 0;
#X connect 2 0 0 0;
#X connect 3 0 2 0;
#X connect 4 0 1 0;
#X connect 5 0 4 1;
#X connect 6 0 4 0;
#X connect 7 0 6 1;
