#N canvas 1400 619 450 300 10;
#N canvas 1099 341 295 325 generator 1;
#X obj 22 192 *~ 0;
#X obj 22 152 *~ 0;
#X obj 22 112 osc~;
#X obj 20 60 inlet;
#X obj 80 110 inlet;
#X obj 120 150 inlet;
#X obj 20 230 outlet~;
#X connect 0 0 6 0;
#X connect 1 0 0 0;
#X connect 2 0 1 0;
#X connect 3 0 2 0;
#X connect 4 0 1 1;
#X connect 5 0 0 1;
#X restore 40 180 pd generator;
#X floatatom 30 120 5 0 0 0 - - -, f 5;
#X obj 30 70 hsl 128 15 0 127 0 0 empty empty empty -2 -8 0 10 #fcfcfc
#000000 #000000 11400 1;
#X obj 200 140 tgl 15 0 empty empty empty 17 7 0 10 #fcfcfc #000000
#000000 1 1;
#X obj 170 0 vsl 15 101 0 1 0 0 empty empty empty 0 -9 0 10 #fcfcfc
#000000 #000000 10000 1;
#X obj 40 230 dac~;
#X connect 0 0 5 0;
#X connect 1 0 0 0;
#X connect 2 0 1 0;
#X connect 3 0 0 2;
#X connect 4 0 0 1;
