#N canvas 1478 514 450 300 10;
#X obj 80 80 osc~ 440;
#X obj 80 150 dac~;
#X floatatom 80 50 5 0 0 0 - - -, f 5;
#X obj 70 10 hsl 128 15 0 127 0 0 empty empty empty -2 -8 0 10 #fcfcfc
#000000 #000000 12700 1;
#X obj 80 110 *~ 0;
#X obj 150 100 tgl 15 0 empty empty empty 17 7 0 10 #fcfcfc #000000
#000000 0 1;
#X connect 0 0 4 0;
#X connect 2 0 0 0;
#X connect 3 0 2 0;
#X connect 4 0 1 0;
#X connect 5 0 4 1;
