#N canvas 1272 462 450 300 10;
#X obj 80 250 dac~;
#X obj 80 210 *~ 0;
#X obj 150 200 tgl 15 0 empty empty empty 17 7 0 10 #fcfcfc #000000
#000000 0 1;
#X obj 80 170 *~ 0;
#X obj 260 30 vsl 15 101 0 1 0 0 empty empty empty 0 -9 0 10 #fcfcfc
#000000 #000000 10000 1;
#X obj 80 120 lop~;
#X obj 220 10 vsl 20 101 0 5000 0 0 empty empty empty 0 -9 0 10 #fcfcfc
#000000 #000000 8850 1;
#X obj 80 60 noise~;
#X connect 1 0 0 0;
#X connect 2 0 1 1;
#X connect 3 0 1 0;
#X connect 4 0 3 1;
#X connect 5 0 3 0;
#X connect 6 0 5 1;
#X connect 7 0 5 0;
