#N canvas 1037 98 764 983 10;
#X obj 80 210 *~ 0;
#X obj 150 200 tgl 15 0 empty empty empty 17 7 0 10 #fcfcfc #000000
#000000 1 1;
#X obj 80 170 *~ 0;
#X obj 270 66 vsl 15 101 0 1 0 0 empty empty empty 0 -9 0 10 #fcfcfc
#000000 #000000 200 1;
#X obj 80 120 lop~;
#X obj 220 10 vsl 20 101 0 5000 0 0 empty empty empty 0 -9 0 10 #fcfcfc
#000000 #000000 10000 1;
#X obj 80 60 noise~;
#X obj 520 254 osc~ 440;
#X floatatom 520 224 5 0 0 0 - - -, f 5;
#X obj 510 184 hsl 128 15 0 127 0 0 empty empty empty -2 -8 0 10 #fcfcfc
#000000 #000000 10000 1;
#X obj 520 334 *~ 0;
#X obj 595 231 tgl 15 0 empty empty empty 17 7 0 10 #fcfcfc #000000
#000000 1 1;
#X obj 520 294 *~ 0;
#X obj 632 211 vsl 15 101 0 1 0 0 empty empty empty 0 -9 0 10 #fcfcfc
#000000 #000000 10000 1;
#X obj 504 68 osc~ 440;
#X obj 143 540 dac~;
#X floatatom 504 38 5 0 0 0 - - -, f 5;
#X obj 503 10 hsl 128 15 0 127 0 0 empty empty empty -2 -8 0 10 #fcfcfc
#000000 #00ff80 9600 1;
#X obj 504 148 *~ 0;
#X obj 589 45 tgl 15 0 empty empty empty 17 7 0 10 #fcfcfc #000000
#000000 1 1;
#X obj 504 108 *~ 0;
#X obj 623 37 vsl 15 101 0 1 0 0 empty empty empty 0 -9 0 10 #fcfcfc
#000000 #000000 6950 1;
#X obj 504 464 osc~ 440;
#X floatatom 504 434 5 0 0 0 - - -, f 5;
#X obj 522 375 hsl 128 15 0 127 0 0 empty empty empty -2 -8 0 10 #fcfcfc
#000000 #000000 10300 1;
#X obj 146 392 +~;
#X obj 147 477 *~ 0;
#X obj 96 460 tgl 15 0 empty empty empty 17 7 0 10 #fcfcfc #000000
#000000 0 1;
#X obj 146 435 *~ 0;
#X obj 98 327 vsl 15 101 0 1 0 0 empty empty empty 0 -9 0 10 #fcfcfc
#000000 #000000 10000 1;
#X obj 514 543 *~ 0;
#X obj 595 426 tgl 15 0 empty empty empty 17 7 0 10 #fcfcfc #000000
#000000 1 1;
#X obj 510 501 *~ 0;
#X obj 641 402 vsl 15 101 0 1 0 0 empty empty empty 0 -9 0 10 #fcfcfc
#000000 #000000 1450 1;
#X connect 0 0 25 1;
#X connect 1 0 0 1;
#X connect 2 0 0 0;
#X connect 3 0 2 1;
#X connect 4 0 2 0;
#X connect 5 0 4 1;
#X connect 6 0 4 0;
#X connect 7 0 12 0;
#X connect 8 0 7 0;
#X connect 9 0 8 0;
#X connect 10 0 25 1;
#X connect 11 0 10 1;
#X connect 12 0 10 0;
#X connect 13 0 12 1;
#X connect 14 0 20 0;
#X connect 16 0 14 0;
#X connect 17 0 16 0;
#X connect 18 0 25 1;
#X connect 19 0 18 1;
#X connect 20 0 18 0;
#X connect 21 0 20 1;
#X connect 22 0 32 0;
#X connect 23 0 22 0;
#X connect 24 0 23 0;
#X connect 25 0 28 0;
#X connect 26 0 15 0;
#X connect 26 0 15 1;
#X connect 27 0 26 1;
#X connect 28 0 26 0;
#X connect 29 0 28 1;
#X connect 30 0 25 1;
#X connect 31 0 30 1;
#X connect 32 0 30 0;
#X connect 33 0 32 1;
