#N canvas 1376 238 418 528 10;
#N canvas 1099 341 295 325 generator 1;
#X obj 22 192 *~ 0;
#X obj 22 152 *~ 0;
#X obj 22 112 osc~;
#X obj 20 60 inlet;
#X obj 80 110 inlet;
#X obj 120 150 inlet;
#X obj 20 230 outlet~;
#X connect 0 0 6 0;
#X connect 1 0 0 0;
#X connect 2 0 1 0;
#X connect 3 0 2 0;
#X connect 4 0 1 1;
#X connect 5 0 0 1;
#X restore 207 348 pd generator;
#X floatatom 207 320 5 0 0 0 - - -, f 5;
#X obj 274 322 tgl 15 0 empty empty empty 17 7 0 10 #fcfcfc #000000
#000000 0 1;
#X obj 326 238 vsl 15 101 0 1 0 0 empty empty empty 0 -9 0 10 #fcfcfc
#000000 #000000 7800 1;
#X obj 192 398 dac~;
#N canvas 471 269 636 663 sekwencer 1;
#X obj 120 100 inlet;
#X obj 213 43 inlet;
#X obj 437 33 inlet;
#X obj 96 570 outlet;
#X obj 281 577 outlet;
#X text 206 20 BPM;
#X text 438 11 duty;
#X text 114 78 start;
#X text 123 386 midi note num;
#X obj 96 493 mtof;
#X text 196 131 length of 1 bit in ms;
#X floatatom 237 160 5 0 0 0 - - -, f 5;
#X floatatom 378 147 5 0 0 0 - - -, f 5;
#X obj 454 126 expr 1 - $f1;
#X obj 219 103 expr (1/($f1/60))*1000;
#X obj 218 189 metro;
#X obj 119 178 sel 0;
#X obj 119 211 bng 20 250 50 0 empty empty empty 17 7 0 10 #fcfcfc
#000000 #000000;
#X obj 51 180 loadbang;
#X msg 118 235 -1;
#X floatatom 58 318 5 0 0 0 - - -, f 5;
#X floatatom 94 460 5 0 0 0 - - -, f 5;
#X obj 92 414 expr $f1 + 60;
#X obj 57 380 % 13;
#X obj 309 265 del;
#X obj 277 282 tgl 15 0 empty empty d 17 7 0 10 #fcfcfc #000000 #000000
0 1;
#X obj 327 317 tgl 15 0 empty empty d 17 7 0 10 #fcfcfc #000000 #000000
0 1;
#X floatatom 358 245 5 0 0 0 - - -, f 5;
#X obj 289 329 tgl 15 0 empty empty empty 17 7 0 10 #fcfcfc #000000
#000000 0 1;
#X text 531 383 d = debug;
#X obj 118 276 int 1;
#X obj 169 278 + 1;
#X obj 372 213 expr $f2 * $f3;
#X connect 0 0 15 0;
#X connect 0 0 16 0;
#X connect 1 0 14 0;
#X connect 2 0 12 0;
#X connect 9 0 3 0;
#X connect 11 0 15 1;
#X connect 11 0 32 2;
#X connect 12 0 32 1;
#X connect 14 0 11 0;
#X connect 15 0 24 0;
#X connect 15 0 25 0;
#X connect 15 0 28 0;
#X connect 15 0 30 0;
#X connect 15 0 32 0;
#X connect 16 0 17 0;
#X connect 17 0 19 0;
#X connect 18 0 17 0;
#X connect 19 0 30 0;
#X connect 20 0 23 0;
#X connect 21 0 9 0;
#X connect 22 0 21 0;
#X connect 23 0 22 0;
#X connect 24 0 26 0;
#X connect 24 0 28 0;
#X connect 24 0 32 0;
#X connect 27 0 24 1;
#X connect 28 0 4 0;
#X connect 30 0 20 0;
#X connect 30 0 31 0;
#X connect 31 0 30 1;
#X connect 32 0 27 0;
#X restore 206 287 pd sekwencer;
#X obj 172 241 bng 15 250 50 0 empty empty empty 17 7 0 10 #fcfcfc
#000000 #000000;
#X obj 227 34 vsl 20 200 15 230 0 0 empty empty empty 0 -9 0 10 #fcfcfc
#000000 #000000 8100 1;
#X obj 277 141 vsl 20 99 0.01 0.99 0 0 empty empty empty 0 -9 0 10
#fcfcfc #000000 #000000 5000 1;
#X floatatom 277 251 5 0 0 0 - - -, f 5;
#X floatatom 229 246 5 0 0 0 - - -, f 5;
#X obj 239 7 loadbang;
#X connect 0 0 4 0;
#X connect 0 0 4 1;
#X connect 1 0 0 0;
#X connect 2 0 0 2;
#X connect 3 0 0 1;
#X connect 5 0 1 0;
#X connect 5 1 2 0;
#X connect 6 0 5 0;
#X connect 7 0 10 0;
#X connect 8 0 9 0;
#X connect 9 0 5 2;
#X connect 10 0 5 1;
#X connect 11 0 7 0;
#X connect 11 0 8 0;
