#N canvas 588 183 418 528 10;
#N canvas 1099 341 295 325 generator 0;
#X obj 22 192 *~ 0;
#X obj 22 152 *~ 0;
#X obj 22 112 osc~;
#X obj 20 60 inlet;
#X obj 80 110 inlet;
#X obj 120 150 inlet;
#X obj 20 230 outlet~;
#X connect 0 0 6 0;
#X connect 1 0 0 0;
#X connect 2 0 1 0;
#X connect 3 0 2 0;
#X connect 4 0 1 1;
#X connect 5 0 0 1;
#X restore 207 348 pd generator;
#X floatatom 207 320 5 0 0 0 - - -, f 5;
#X obj 274 322 tgl 15 0 empty empty empty 17 7 0 10 #fcfcfc #000000
#000000 1 1;
#X obj 326 238 vsl 15 101 0 1 0 0 empty empty empty 0 -9 0 10 #fcfcfc
#000000 #000000 0 1;
#X obj 192 398 dac~;
#N canvas 1171 324 621 686 sekwencer 1;
#X obj 120 100 inlet;
#X obj 213 43 inlet;
#X obj 437 33 inlet;
#X obj 96 570 outlet;
#X obj 281 577 outlet;
#X text 206 20 BPM;
#X text 438 11 duty;
#X text 114 78 start;
#X text 123 386 midi note num;
#X obj 96 493 mtof;
#X text 196 131 length of 1 bit in ms;
#X floatatom 237 160 5 0 0 0 - - -, f 5;
#X floatatom 378 147 5 0 0 0 - - -, f 5;
#X obj 454 126 expr 1 - $f1;
#X obj 219 103 expr (1/($f1/60))*1000;
#X obj 218 189 metro;
#X obj 119 178 sel 0;
#X obj 119 211 bng 20 250 50 0 empty empty empty 17 7 0 10 #fcfcfc
#000000 #000000;
#X obj 51 179 loadbang;
#X msg 118 235 -1;
#X floatatom 58 318 5 0 0 0 - - -, f 5;
#X obj 309 265 del;
#X obj 277 282 tgl 15 0 empty empty d 17 7 0 10 #fcfcfc #000000 #000000
0 1;
#X obj 327 317 tgl 15 0 empty empty d 17 7 0 10 #fcfcfc #000000 #000000
1 1;
#X floatatom 358 245 5 0 0 0 - - -, f 5;
#X obj 289 329 tgl 15 0 empty empty empty 17 7 0 10 #fcfcfc #000000
#000000 1 1;
#X text 531 383 d = debug;
#X obj 118 276 int 1;
#X obj 169 278 + 1;
#X obj 372 213 expr $f2 * $f3;
#X obj 57 378 % 20;
#X floatatom 118 542 5 0 0 0 - - -, f 5;
#X obj 80 450 tabread melody;
#X connect 0 0 15 0;
#X connect 0 0 16 0;
#X connect 1 0 14 0;
#X connect 2 0 12 0;
#X connect 9 0 3 0;
#X connect 9 0 31 0;
#X connect 11 0 15 1;
#X connect 11 0 29 2;
#X connect 12 0 29 1;
#X connect 14 0 11 0;
#X connect 15 0 21 0;
#X connect 15 0 22 0;
#X connect 15 0 25 0;
#X connect 15 0 27 0;
#X connect 15 0 29 0;
#X connect 16 0 17 0;
#X connect 17 0 19 0;
#X connect 18 0 17 0;
#X connect 19 0 27 0;
#X connect 20 0 30 0;
#X connect 21 0 23 0;
#X connect 21 0 25 0;
#X connect 21 0 29 0;
#X connect 24 0 21 1;
#X connect 25 0 4 0;
#X connect 27 0 20 0;
#X connect 27 0 28 0;
#X connect 28 0 27 1;
#X connect 29 0 24 0;
#X connect 30 0 32 0;
#X connect 32 0 9 0;
#X restore 206 287 pd sekwencer;
#X obj 172 241 bng 15 250 50 0 empty empty empty 17 7 0 10 #fcfcfc
#000000 #000000;
#X obj 227 33 vsl 20 200 15 230 0 0 empty empty empty 0 -9 0 10 #fcfcfc
#000000 #000000 7800 1;
#X obj 275 142 vsl 20 99 0.01 0.99 0 0 empty empty empty 0 -9 0 10
#fcfcfc #000000 #000000 9800 1;
#X floatatom 277 251 5 0 0 0 - - -, f 5;
#X floatatom 229 246 5 0 0 0 - - -, f 5;
#X obj 239 7 loadbang;
#N canvas 0 0 450 300 (subpatch) 0;
#X array melody 20 float 3 black black;
#A 0 63.7717 44.743 66.343 26.5375 47.109 56.063 60.6916 63.7773 64.2916
61.2059 55.0344 43.7201 34.4629 49.0337 49.548 51.4435 54.4632 38.1382
53.6329 18.006;
#X coords 0 72 20 0 200 140 1;
#X restore -4 2 graph;
#X connect 0 0 4 0;
#X connect 0 0 4 1;
#X connect 1 0 0 0;
#X connect 2 0 0 2;
#X connect 3 0 0 1;
#X connect 5 0 1 0;
#X connect 5 1 2 0;
#X connect 6 0 5 0;
#X connect 7 0 10 0;
#X connect 8 0 9 0;
#X connect 9 0 5 2;
#X connect 10 0 5 1;
#X connect 11 0 7 0;
#X connect 11 0 8 0;
