#N canvas -8 -8 1382 698 10;
#X obj 102 -470 *~ 0;
#X obj 172 -480 tgl 15 0 empty empty empty 17 7 0 10 #fcfcfc #000000
#000000 0 1;
#X obj 102 -510 *~ 0;
#X obj 190 -630 vsl 15 101 0 1 0 0 empty empty empty 0 -9 0 10 #fcfcfc
#000000 #000000 0 1;
#X obj 102 -560 lop~;
#X obj 160 -670 vsl 20 101 0 5000 0 0 empty empty empty 0 -9 0 10 #fcfcfc
#000000 #000000 0 1;
#X obj 102 -620 noise~;
#X obj 412 -276 *~ 0;
#X obj 480 -300 tgl 15 0 empty empty empty 17 7 0 10 #fcfcfc #000000
#000000 1 1;
#X obj 412 -316 *~ 0;
#X obj 525 -425 vsl 15 101 0 1 0 0 empty empty empty 0 -9 0 10 #fcfcfc
#000000 #000000 8500 1;
#X obj 167 78 dac~;
#X obj 170 -70 +~;
#X obj 171 15 *~ 0;
#X obj 120 -2 tgl 15 0 empty empty empty 17 7 0 10 #fcfcfc #000000
#000000 1 1;
#X obj 170 -27 *~ 0;
#X obj 122 -135 vsl 15 101 0 1 0 0 empty empty empty 0 -9 0 10 #fcfcfc
#000000 #000000 550 1;
#X obj 656 -277 *~ 0;
#X obj 720 -300 tgl 14 0 empty empty empty 17 7 0 10 #fcfcfc #000000
#000000 0 1;
#X obj 652 -319 *~ 0;
#X obj 770 -430 vsl 15 101 0 1 0 0 empty empty empty 0 -9 0 10 #fcfcfc
#000000 #000000 0 1;
#X obj 523 -676 notein;
#X obj 410 -400 phasor~ 440;
#X obj 650 -360 expr~ $v1 > 0.5;
#X obj 650 -390 phasor~ 440;
#X obj 390 -670 vsl 15 101 -12 12 0 0 empty empty empty 0 -9 0 10 #fcfcfc
#000000 #000000 0 1;
#X floatatom 390 -550 5 0 0 0 - - -, f 5;
#X obj 330 -710 bng 15 250 50 0 empty empty empty 17 7 0 10 #fcfcfc
#000000 #000000;
#X obj 330 -680 0;
#X obj 410 -520 +;
#X obj 650 -660 vsl 15 101 -12 12 0 0 empty empty empty 0 -9 0 10 #fcfcfc
#000000 #000000 0 1;
#X floatatom 652 -548 5 0 0 0 - - -, f 5;
#X obj 710 -690 bng 15 250 50 0 empty empty empty 17 7 0 10 #fcfcfc
#000000 #000000;
#X obj 710 -670 0;
#X obj 640 -510 +;
#X floatatom 487 -644 5 0 0 0 - - -, f 5;
#X obj 410 -495 mtof;
#X obj 640 -485 mtof;
#X floatatom 640 -460 5 0 0 0 - - -, f 5;
#X floatatom 410 -470 5 0 0 0 - - -, f 5;
#X obj 913 -380 snapshot~;
#X obj 947 -407 bng 15 250 50 0 empty empty empty 17 7 0 10 #fcfcfc
#000000 #000000;
#X obj 970 -482 loadbang;
#X obj 970 -460 bng 15 250 50 0 empty empty empty 17 7 0 10 #fcfcfc
#000000 #000000;
#X obj 971 -440 metro 100;
#X obj 923 -334 print 2;
#X obj 410 -375 *~ 2;
#X obj 410 -350 -~ 1;
#X connect 0 0 12 1;
#X connect 1 0 0 1;
#X connect 2 0 0 0;
#X connect 3 0 2 1;
#X connect 4 0 2 0;
#X connect 5 0 4 1;
#X connect 6 0 4 0;
#X connect 7 0 12 1;
#X connect 8 0 7 1;
#X connect 9 0 7 0;
#X connect 10 0 9 1;
#X connect 12 0 15 0;
#X connect 13 0 11 0;
#X connect 13 0 11 1;
#X connect 14 0 13 1;
#X connect 15 0 13 0;
#X connect 16 0 15 1;
#X connect 17 0 12 1;
#X connect 18 0 17 1;
#X connect 19 0 17 0;
#X connect 20 0 19 1;
#X connect 21 0 35 0;
#X connect 22 0 46 0;
#X connect 23 0 19 0;
#X connect 24 0 23 0;
#X connect 25 0 26 0;
#X connect 26 0 29 1;
#X connect 27 0 28 0;
#X connect 28 0 25 0;
#X connect 29 0 36 0;
#X connect 30 0 31 0;
#X connect 31 0 34 1;
#X connect 32 0 33 0;
#X connect 33 0 30 0;
#X connect 34 0 37 0;
#X connect 35 0 34 0;
#X connect 35 0 29 0;
#X connect 36 0 39 0;
#X connect 37 0 38 0;
#X connect 38 0 24 0;
#X connect 39 0 22 0;
#X connect 41 0 40 0;
#X connect 42 0 43 0;
#X connect 43 0 44 0;
#X connect 44 0 41 0;
#X connect 46 0 47 0;
#X connect 47 0 9 0;
