#N canvas 0 0 1920 1024 10;
#X obj -278 -278 *~ 0;
#X obj -208 -288 tgl 15 0 empty empty empty 17 7 0 10 #fcfcfc #000000
#000000 0 1;
#X obj -278 -318 *~ 0;
#X obj -209 -441 vsl 15 101 0 1 0 0 empty empty empty 0 -9 0 10 #fcfcfc
#000000 #000000 0 1;
#X obj 653 -266 tgl 15 1 empty empty empty 17 7 0 10 #fcfcfc #000000
#000000 1 1;
#X obj 604 -354 vsl 15 101 0 1 0 1 empty empty volume 0 -9 0 10 #fcfcfc
#000000 #000000 8100 1;
#X obj 1051 -257 tgl 14 0 empty empty empty 17 7 0 10 #fcfcfc #000000
#000000 1 1;
#X obj 1005 -349 vsl 15 101 0 1 0 1 empty empty volume 0 -9 0 10 #fcfcfc
#000000 #000000 4700 1;
#X obj 191 -801 notein;
#X obj 549 -346 vsl 15 101 -12 12 0 1 empty empty note_mod 0 -9 0 10
#fcfcfc #000000 #000000 5000 1;
#X obj 556 -411 bng 15 250 50 1 empty empty empty 17 7 0 10 #fcfcfc
#000000 #000000;
#X obj 556 -381 0;
#X obj 941 -355 vsl 15 101 -12 12 0 1 empty empty note_mod 0 -9 0 10
#fcfcfc #000000 #000000 5000 1;
#X obj 945 -410 bng 15 250 50 1 empty empty empty 17 7 0 10 #fcfcfc
#000000 #000000;
#X obj 945 -390 0;
#X obj 432 239 dac~;
#X obj 108 -185 hsl 128 15 0 1 0 1 empty empty Sutain -2 -8 0 10 #fcfcfc
#000000 #000000 7100 1;
#X obj 121 -158 hsl 128 15 10 2000 0 1 empty empty Attack -2 -8 0 10
#fcfcfc #000000 #000000 1000 1;
#X obj 135 -131 hsl 128 15 10 2000 0 1 empty empty Decay -2 -8 0 10
#fcfcfc #000000 #000000 2300 1;
#X obj 151 -106 hsl 128 15 10 2000 0 1 empty empty Release -2 -8 0
10 #fcfcfc #000000 #000000 2700 1;
#X obj 1085 -348 vsl 19 101 60 1000 0 1 empty empty cutoff_f_mod 0
-9 0 10 #fcfcfc #000000 #000000 0 1;
#X floatatom -207 -330 5 0 0 0 - - -, f 5;
#X obj 89 141 *~;
#X obj 442 205 +~;
#X obj 799 -380 vsl 15 128 0 30 0 1 empty empty vib\ F 0 -9 0 10 #fcfcfc
#000000 #000000 5400 1;
#X obj 754 -443 vradio 15 0 1 3 empty empty vib\ off/lin/log 0 -8 0
10 #fcfcfc #000000 #000000 1;
#X obj 1233 -324 vsl 15 128 0 1 0 1 empty empty empty 0 -9 0 10 #fcfcfc
#000000 #000000 12700 1;
#X obj 1201 -206 tgl 15 0 empty empty empty 17 7 0 10 #fcfcfc #000000
#000000 0 1;
#N canvas 476 336 780 701 tremollo 0;
#X obj 117 295 osc~;
#X floatatom 188 202 5 0 1 0 - - -, f 5;
#X obj 217 365 +~;
#X obj 218 292 sig~;
#X floatatom 167 295 5 0 0 0 - - -, f 5;
#X floatatom 399 282 5 0 0 0 - - -, f 5;
#X obj 357 305 sig~;
#X obj 215 483 outlet~;
#X obj 137 335 *~;
#X obj 187 255 expr 0.5-(0.5*(1 - $f1));
#X obj 357 255 expr 0.5+((1 - $f1)*0.5);
#X text 408 225 stała;
#X text 107 225 zmienna;
#X obj 193 65 inlet;
#X obj 27 64 inlet;
#X text 186 36 % efektu \; 0-1;
#X text 45 33 on/off;
#X floatatom 20 203 5 0 0 0 - - -, f 5;
#X obj 75 307 1;
#X obj 75 364 sig~;
#X obj 62 407 mux~ 0 1;
#X obj 441 463 snapshot~;
#X obj 475 436 bng 15 250 50 0 empty empty empty 17 7 0 10 #fcfcfc
#000000 #000000;
#X obj 498 361 loadbang;
#X obj 498 383 bng 15 250 50 0 empty empty empty 17 7 0 10 #fcfcfc
#000000 #000000;
#X obj 499 403 metro 100;
#X obj 442 498 print 2;
#X obj 45 228 loadbang;
#X obj 45 250 bng 15 250 50 0 empty empty empty 17 7 0 10 #fcfcfc #000000
#000000;
#X floatatom 76 338 5 0 0 0 - - -, f 5;
#X obj 113 269 6;
#X text 426 10 tremollo - modulacja amplitudy sygnału;
#X connect 0 0 8 0;
#X connect 1 0 9 0;
#X connect 1 0 10 0;
#X connect 2 0 20 1;
#X connect 3 0 8 1;
#X connect 6 0 2 1;
#X connect 8 0 2 0;
#X connect 9 0 3 0;
#X connect 9 0 4 0;
#X connect 10 0 5 0;
#X connect 10 0 6 0;
#X connect 13 0 1 0;
#X connect 14 0 17 0;
#X connect 17 0 20 0;
#X connect 18 0 29 0;
#X connect 19 0 20 0;
#X connect 20 0 7 0;
#X connect 22 0 21 0;
#X connect 23 0 24 0;
#X connect 24 0 25 0;
#X connect 25 0 22 0;
#X connect 27 0 28 0;
#X connect 28 0 18 0;
#X connect 28 0 30 0;
#X connect 29 0 19 0;
#X connect 30 0 0 0;
#X restore 1190 -178 pd tremollo;
#X obj 867 -376 vsl 15 128 0 1 0 1 empty empty empty 0 -9 0 10 #fcfcfc
#000000 #000000 8300 1;
#X obj 679 -778 ctlin;
#N canvas 319 8 526 561 control 0;
#X floatatom 65 139 5 0 1 0 - - -, f 5;
#X floatatom 165 141 5 0 0 0 - - -, f 5;
#X obj 58 75 inlet;
#X obj 165 75 inlet;
#X obj 66 165 / 127;
#X floatatom 82 291 5 0 0 0 - - -, f 5;
#X floatatom 183 295 5 0 0 0 - - -, f 5;
#X obj 210 369 outlet;
#X obj 21 367 outlet;
#X text 25 390 volume;
#X text 203 392 modulation;
#X text 50 49 value;
#X text 161 54 channel;
#X obj 65 245 demux 0 1 2 3 4 5 6 7 8 9;
#X connect 0 0 4 0;
#X connect 1 0 13 1;
#X connect 2 0 0 0;
#X connect 3 0 1 0;
#X connect 4 0 13 0;
#X connect 5 0 7 0;
#X connect 6 0 8 0;
#X connect 13 1 5 0;
#X connect 13 7 6 0;
#X restore 665 -745 pd control;
#X obj 684 -364 vsl 20 101 60 1000 0 1 empty empty cutoff_f_mod 0 -9
0 10 #fcfcfc #000000 #000000 5900 1;
#X floatatom 174 -759 4 0 1 0 - - -, f 4;
#X floatatom 213 -761 4 0 1 0 - - -, f 4;
#X obj 183 -671 pack 0 0 0;
#X obj 182 -706 poly 5 1;
#X obj 188 -627 route 1 2 3 4 5;
#X obj 196 -569 unpack;
#X floatatom 170 -534 5 0 0 0 - - -, f 5;
#X floatatom 211 -532 5 0 0 0 - - -, f 5;
#X obj 252 -568 unpack;
#X floatatom 251 -529 5 0 0 0 - - -, f 5;
#X floatatom 291 -530 5 0 0 0 - - -, f 5;
#X obj 337 -568 unpack;
#X floatatom 334 -529 5 0 0 0 - - -, f 5;
#X floatatom 373 -528 5 0 0 0 - - -, f 5;
#X obj 412 -565 unpack;
#X floatatom 416 -529 5 0 0 0 - - -, f 5;
#X floatatom 451 -529 5 0 0 0 - - -, f 5;
#X obj 477 -568 unpack;
#X floatatom 493 -528 5 0 0 0 - - -, f 5;
#X floatatom 534 -525 5 0 0 0 - - -, f 5;
#X obj 213 -737 / 127;
#N canvas 735 362 450 300 s_lop 0;
#X obj 191 102 svf~;
#X obj 191 127 outlet~;
#X obj 122 48 inlet~;
#X text 119 26 signal;
#X text 210 27 cutoff_freq;
#X obj 212 49 inlet~;
#X obj 296 86 0.5;
#X obj 309 54 loadbang;
#X connect 0 0 1 0;
#X connect 2 0 0 0;
#X connect 5 0 0 1;
#X connect 6 0 0 2;
#X connect 7 0 6 0;
#X restore -287 -374 pd s_lop;
#X obj -326 -414 noise~;
#X obj -237 -555 vsl 15 128 60 2000 0 1 empty empty empty 0 -9 0 10
#fcfcfc #000000 #000000 0 1;
#X obj -243 -414 sig~;
#X text 618 -427 sawtooth;
#X obj 886 -374 vsl 15 128 0 1 0 1 empty empty empty 0 -9 0 10 #fcfcfc
#000000 #000000 12700 1;
#X floatatom 874 -443 5 0 0 0 - - -, f 5;
#X floatatom 1001 -604 5 0 0 0 - - -, f 5;
#N canvas 122 26 1598 1001 5-sub-gen 0;
#X obj 135 131 inlet;
#X text 271 37 sawtooth;
#X text 129 110 note_mod;
#X obj -167 105 inlet;
#X obj 216 134 inlet;
#X obj 288 136 inlet;
#X text 216 107 volume;
#X text 282 107 on/off;
#X floatatom 215 163 5 0 0 0 - - -, f 5;
#X floatatom 288 161 5 0 0 0 - - -, f 5;
#X text 379 107 lop_mod;
#X obj 378 133 inlet;
#X floatatom 378 158 5 0 0 0 - - -, f 5;
#X text 545 31 vibrato_lop;
#X obj 511 125 inlet;
#X obj 583 127 inlet;
#X floatatom 510 154 5 0 0 0 - - -, f 5;
#X floatatom 583 152 5 0 0 0 - - -, f 5;
#X obj 673 124 inlet;
#X floatatom 673 149 5 0 0 0 - - -, f 5;
#X text 503 91 on/off;
#X text 574 86 freq;
#X obj 545 662 outlet~;
#X floatatom -169 142 5 0 0 0 - - -, f 5;
#X floatatom 137 160 5 0 0 0 - - -, f 5;
#X obj 765 119 inlet;
#X floatatom 765 144 5 0 0 0 - - -, f 5;
#X text 669 87 effect % saw, f 10;
#X text 761 86 effect % sq, f 9;
#X obj 900 112 inlet;
#X text 894 91 note_mod;
#X obj 981 115 inlet;
#X obj 1053 117 inlet;
#X text 981 88 volume;
#X text 1047 88 on/off;
#X floatatom 980 144 5 0 0 0 - - -, f 5;
#X floatatom 1053 142 5 0 0 0 - - -, f 5;
#X text 1144 88 lop_mod;
#X obj 1143 114 inlet;
#X floatatom 1143 139 5 0 0 0 - - -, f 5;
#X floatatom 902 141 5 0 0 0 - - -, f 5;
#X text 1003 46 square;
#X obj 479 544 subtractive_gen;
#X text -165 74 note 1;
#X obj -110 106 inlet;
#X floatatom -110 132 5 0 0 0 - - -, f 5;
#X obj -57 110 inlet;
#X floatatom -57 136 5 0 0 0 - - -, f 5;
#X obj -5 112 inlet;
#X floatatom -5 138 5 0 0 0 - - -, f 5;
#X obj 43 114 inlet;
#X floatatom 43 140 4 0 0 0 - - -, f 4;
#X text -108 76 note 2;
#X text -54 79 note 3;
#X text -3 82 note 4;
#X text 45 82 note 5;
#X obj 285 543 subtractive_gen;
#X obj 106 543 subtractive_gen;
#X obj -76 545 subtractive_gen;
#X obj 667 548 subtractive_gen;
#X obj -49 670 outlet~;
#X obj 168 659 outlet~;
#X obj 356 657 outlet~;
#X obj 724 664 outlet~;
#X connect 0 0 24 0;
#X connect 3 0 23 0;
#X connect 4 0 8 0;
#X connect 5 0 9 0;
#X connect 8 0 59 2;
#X connect 8 0 42 2;
#X connect 8 0 58 2;
#X connect 8 0 57 2;
#X connect 8 0 56 2;
#X connect 9 0 59 3;
#X connect 9 0 42 3;
#X connect 9 0 58 3;
#X connect 9 0 57 3;
#X connect 9 0 56 3;
#X connect 11 0 12 0;
#X connect 12 0 59 4;
#X connect 12 0 42 4;
#X connect 12 0 58 4;
#X connect 12 0 57 4;
#X connect 12 0 56 4;
#X connect 14 0 16 0;
#X connect 15 0 17 0;
#X connect 16 0 59 5;
#X connect 16 0 42 5;
#X connect 16 0 58 5;
#X connect 16 0 57 5;
#X connect 16 0 56 5;
#X connect 17 0 59 6;
#X connect 17 0 42 6;
#X connect 17 0 58 6;
#X connect 17 0 57 6;
#X connect 17 0 56 6;
#X connect 18 0 19 0;
#X connect 19 0 59 7;
#X connect 19 0 42 7;
#X connect 19 0 58 7;
#X connect 19 0 57 7;
#X connect 19 0 56 7;
#X connect 23 0 58 0;
#X connect 24 0 59 1;
#X connect 24 0 42 1;
#X connect 24 0 58 1;
#X connect 24 0 57 1;
#X connect 24 0 56 1;
#X connect 25 0 26 0;
#X connect 26 0 59 8;
#X connect 26 0 42 8;
#X connect 26 0 58 8;
#X connect 26 0 57 8;
#X connect 26 0 56 8;
#X connect 29 0 40 0;
#X connect 31 0 35 0;
#X connect 32 0 36 0;
#X connect 35 0 59 10;
#X connect 35 0 42 10;
#X connect 35 0 58 10;
#X connect 35 0 57 10;
#X connect 35 0 56 10;
#X connect 36 0 59 11;
#X connect 36 0 42 11;
#X connect 36 0 58 11;
#X connect 36 0 57 11;
#X connect 36 0 56 11;
#X connect 38 0 39 0;
#X connect 39 0 59 12;
#X connect 39 0 42 12;
#X connect 39 0 58 12;
#X connect 39 0 57 12;
#X connect 39 0 56 12;
#X connect 40 0 59 9;
#X connect 40 0 42 9;
#X connect 40 0 58 9;
#X connect 40 0 57 9;
#X connect 40 0 56 9;
#X connect 42 0 22 0;
#X connect 44 0 45 0;
#X connect 45 0 57 0;
#X connect 46 0 47 0;
#X connect 47 0 56 0;
#X connect 48 0 49 0;
#X connect 49 0 42 0;
#X connect 50 0 51 0;
#X connect 51 0 59 0;
#X connect 56 0 62 0;
#X connect 57 0 61 0;
#X connect 58 0 60 0;
#X connect 59 0 63 0;
#X restore 287 -182 pd 5-sub-gen;
#X f 137;
#N canvas 368 463 679 361 5-ADSR 0;
#X floatatom 35 37 5 0 0 0 - - -, f 5;
#X obj 19 267 ADSR;
#X obj 396 23 inlet;
#X obj 443 24 inlet;
#X obj 487 21 inlet;
#X obj 526 23 inlet;
#X floatatom 395 56 5 0 0 0 - - -, f 5;
#X floatatom 446 57 5 0 0 0 - - -, f 5;
#X floatatom 490 64 5 0 0 0 - - -, f 5;
#X floatatom 530 62 5 0 0 0 - - -, f 5;
#X obj 34 8 inlet;
#X obj 95 267 ADSR;
#X obj 175 267 ADSR;
#X obj 255 270 ADSR;
#X obj 327 272 ADSR;
#X floatatom 81 38 5 0 0 0 - - -, f 5;
#X obj 81 7 inlet;
#X floatatom 125 39 5 0 0 0 - - -, f 5;
#X obj 125 7 inlet;
#X floatatom 171 34 5 0 0 0 - - -, f 5;
#X obj 171 6 inlet;
#X floatatom 212 33 5 0 0 0 - - -, f 5;
#X obj 214 7 inlet;
#X obj 20 310 outlet~;
#X obj 100 310 outlet~;
#X obj 174 310 outlet~;
#X obj 254 309 outlet~;
#X obj 328 309 outlet~;
#X connect 0 0 1 0;
#X connect 1 0 23 0;
#X connect 2 0 6 0;
#X connect 3 0 7 0;
#X connect 4 0 8 0;
#X connect 5 0 9 0;
#X connect 6 0 1 1;
#X connect 6 0 11 1;
#X connect 6 0 12 1;
#X connect 6 0 13 1;
#X connect 6 0 14 1;
#X connect 7 0 1 2;
#X connect 7 0 11 2;
#X connect 7 0 12 2;
#X connect 7 0 13 2;
#X connect 7 0 14 2;
#X connect 8 0 1 3;
#X connect 8 0 11 3;
#X connect 8 0 12 3;
#X connect 8 0 13 3;
#X connect 8 0 14 3;
#X connect 9 0 1 4;
#X connect 9 0 11 4;
#X connect 9 0 12 4;
#X connect 9 0 13 4;
#X connect 9 0 14 4;
#X connect 10 0 0 0;
#X connect 11 0 24 0;
#X connect 12 0 25 0;
#X connect 13 0 26 0;
#X connect 14 0 27 0;
#X connect 15 0 11 0;
#X connect 16 0 15 0;
#X connect 17 0 12 0;
#X connect 18 0 17 0;
#X connect 19 0 13 0;
#X connect 20 0 19 0;
#X connect 21 0 14 0;
#X connect 22 0 21 0;
#X restore 0 -69 pd 5-ADSR;
#X f 26;
#X obj 247 20 *~;
#X obj 286 21 *~;
#X obj 324 22 *~;
#X obj 367 20 *~;
#X obj 413 28 *~;
#X obj 246 131 *~;
#X obj 284 132 *~;
#X obj 317 133 *~;
#X obj 367 137 *~;
#X obj 417 134 *~;
#X obj -219 -12 hsl 128 15 0 1 0 1 empty empty Sutain -2 -8 0 10 #fcfcfc
#000000 #000000 7100 1;
#X obj -206 15 hsl 128 15 10 2000 0 1 empty empty Attack -2 -8 0 10
#fcfcfc #000000 #000000 1000 1;
#X obj -192 42 hsl 128 15 10 2000 0 1 empty empty Decay -2 -8 0 10
#fcfcfc #000000 #000000 2300 1;
#X obj -176 67 hsl 128 15 10 2000 0 1 empty empty Release -2 -8 0 10
#fcfcfc #000000 #000000 2700 1;
#N canvas 368 463 679 361 5-ADSR 0;
#X floatatom 35 37 5 0 0 0 - - -, f 5;
#X obj 19 267 ADSR;
#X obj 396 23 inlet;
#X obj 443 24 inlet;
#X obj 487 21 inlet;
#X obj 526 23 inlet;
#X floatatom 395 56 5 0 0 0 - - -, f 5;
#X floatatom 446 57 5 0 0 0 - - -, f 5;
#X floatatom 490 64 5 0 0 0 - - -, f 5;
#X floatatom 530 62 5 0 0 0 - - -, f 5;
#X obj 34 8 inlet;
#X obj 95 267 ADSR;
#X obj 175 267 ADSR;
#X obj 255 270 ADSR;
#X obj 327 272 ADSR;
#X floatatom 81 38 5 0 0 0 - - -, f 5;
#X obj 81 7 inlet;
#X floatatom 125 39 5 0 0 0 - - -, f 5;
#X obj 125 7 inlet;
#X floatatom 171 34 5 0 0 0 - - -, f 5;
#X obj 171 6 inlet;
#X floatatom 212 33 5 0 0 0 - - -, f 5;
#X obj 214 7 inlet;
#X obj 20 310 outlet~;
#X obj 100 310 outlet~;
#X obj 174 310 outlet~;
#X obj 254 309 outlet~;
#X obj 328 309 outlet~;
#X connect 0 0 1 0;
#X connect 1 0 23 0;
#X connect 2 0 6 0;
#X connect 3 0 7 0;
#X connect 4 0 8 0;
#X connect 5 0 9 0;
#X connect 6 0 1 1;
#X connect 6 0 11 1;
#X connect 6 0 12 1;
#X connect 6 0 13 1;
#X connect 6 0 14 1;
#X connect 7 0 1 2;
#X connect 7 0 11 2;
#X connect 7 0 12 2;
#X connect 7 0 13 2;
#X connect 7 0 14 2;
#X connect 8 0 1 3;
#X connect 8 0 11 3;
#X connect 8 0 12 3;
#X connect 8 0 13 3;
#X connect 8 0 14 3;
#X connect 9 0 1 4;
#X connect 9 0 11 4;
#X connect 9 0 12 4;
#X connect 9 0 13 4;
#X connect 9 0 14 4;
#X connect 10 0 0 0;
#X connect 11 0 24 0;
#X connect 12 0 25 0;
#X connect 13 0 26 0;
#X connect 14 0 27 0;
#X connect 15 0 11 0;
#X connect 16 0 15 0;
#X connect 17 0 12 0;
#X connect 18 0 17 0;
#X connect 19 0 13 0;
#X connect 20 0 19 0;
#X connect 21 0 14 0;
#X connect 22 0 21 0;
#X restore -353 18 pd 5-ADSR;
#X obj -263 174 +~;
#X connect 0 0 22 0;
#X connect 1 0 0 1;
#X connect 2 0 0 0;
#X connect 3 0 21 0;
#X connect 4 0 62 7;
#X connect 5 0 62 6;
#X connect 6 0 62 15;
#X connect 7 0 62 14;
#X connect 8 0 33 0;
#X connect 8 1 34 0;
#X connect 9 0 62 5;
#X connect 10 0 11 0;
#X connect 11 0 9 0;
#X connect 12 0 62 13;
#X connect 13 0 14 0;
#X connect 14 0 12 0;
#X connect 16 0 63 5;
#X connect 17 0 63 6;
#X connect 18 0 63 7;
#X connect 19 0 63 8;
#X connect 20 0 62 16;
#X connect 21 0 2 1;
#X connect 22 0 23 0;
#X connect 23 0 15 0;
#X connect 23 0 15 1;
#X connect 24 0 62 10;
#X connect 25 0 62 9;
#X connect 26 0 28 1;
#X connect 27 0 28 0;
#X connect 28 0 69 1;
#X connect 28 0 70 1;
#X connect 28 0 71 1;
#X connect 28 0 72 1;
#X connect 28 0 73 1;
#X connect 29 0 62 11;
#X connect 30 0 31 0;
#X connect 30 1 31 1;
#X connect 31 0 5 0;
#X connect 31 0 61 0;
#X connect 31 1 60 0;
#X connect 32 0 62 8;
#X connect 33 0 36 0;
#X connect 34 0 53 0;
#X connect 35 0 37 0;
#X connect 36 0 35 0;
#X connect 36 1 35 1;
#X connect 36 2 35 2;
#X connect 37 0 38 0;
#X connect 37 1 41 0;
#X connect 37 2 44 0;
#X connect 37 3 47 0;
#X connect 37 4 50 0;
#X connect 38 0 39 0;
#X connect 38 1 40 0;
#X connect 39 0 62 0;
#X connect 40 0 63 0;
#X connect 40 0 78 0;
#X connect 41 0 42 0;
#X connect 41 1 43 0;
#X connect 42 0 62 1;
#X connect 43 0 63 1;
#X connect 43 0 78 1;
#X connect 44 0 45 0;
#X connect 44 1 46 0;
#X connect 45 0 62 2;
#X connect 46 0 63 2;
#X connect 46 0 78 2;
#X connect 47 0 48 0;
#X connect 47 1 49 0;
#X connect 48 0 62 3;
#X connect 49 0 63 3;
#X connect 49 0 78 3;
#X connect 50 0 51 0;
#X connect 50 1 52 0;
#X connect 51 0 62 4;
#X connect 52 0 63 4;
#X connect 52 0 78 4;
#X connect 53 0 36 1;
#X connect 54 0 2 0;
#X connect 55 0 54 0;
#X connect 56 0 57 0;
#X connect 57 0 54 1;
#X connect 59 0 62 12;
#X connect 60 0 29 0;
#X connect 60 0 59 0;
#X connect 61 0 7 0;
#X connect 62 0 64 0;
#X connect 62 1 65 0;
#X connect 62 2 66 0;
#X connect 62 3 67 0;
#X connect 62 4 68 0;
#X connect 63 0 64 1;
#X connect 63 1 65 1;
#X connect 63 2 66 1;
#X connect 63 3 67 1;
#X connect 63 4 68 1;
#X connect 64 0 69 0;
#X connect 65 0 70 0;
#X connect 66 0 71 0;
#X connect 67 0 72 0;
#X connect 68 0 73 0;
#X connect 69 0 23 1;
#X connect 70 0 23 1;
#X connect 71 0 23 1;
#X connect 72 0 23 1;
#X connect 73 0 23 1;
#X connect 74 0 78 5;
#X connect 75 0 78 6;
#X connect 76 0 78 7;
#X connect 77 0 78 8;
#X connect 78 0 79 0;
#X connect 78 1 79 1;
#X connect 78 2 79 1;
#X connect 78 3 79 1;
#X connect 78 4 79 1;
#X connect 79 0 22 1;
