#N canvas 0 0 1921 1024 10;
#X obj 75 -164 *~ 0;
#X obj 145 -174 tgl 15 0 empty empty empty 17 7 0 10 #fcfcfc #000000
#000000 0 1;
#X obj 75 -204 *~ 0;
#X obj 144 -327 vsl 15 101 0 1 0 0 empty empty empty 0 -9 0 10 #fcfcfc
#000000 #000000 0 1;
#X obj 653 -266 tgl 15 0 empty empty empty 17 7 0 10 #fcfcfc #000000
#000000 0 1;
#X obj 604 -354 vsl 15 101 0 1 0 0 empty empty volume 0 -9 0 10 #fcfcfc
#000000 #000000 8000 1;
#X obj 1051 -257 tgl 14 0 empty empty empty 17 7 0 10 #fcfcfc #000000
#000000 0 1;
#X obj 1005 -349 vsl 15 101 0 1 0 0 empty empty volume 0 -9 0 10 #fcfcfc
#000000 #000000 10000 1;
#X obj 511 -827 notein;
#X obj 549 -346 vsl 15 101 -12 12 0 0 empty empty note_mod 0 -9 0 10
#fcfcfc #000000 #000000 5000 1;
#X obj 556 -411 bng 15 250 50 0 empty empty empty 17 7 0 10 #fcfcfc
#000000 #000000;
#X obj 556 -381 0;
#X obj 941 -355 vsl 15 101 -12 12 0 0 empty empty note_mod 0 -9 0 10
#fcfcfc #000000 #000000 5000 1;
#X obj 945 -410 bng 15 250 50 0 empty empty empty 17 7 0 10 #fcfcfc
#000000 #000000;
#X obj 945 -390 0;
#X floatatom 492 -756 5 0 0 0 - - -, f 5;
#X obj 432 239 dac~;
#N canvas 554 20 811 983 ADSR 0;
#X obj 73 71 inlet;
#X obj 272 821 snapshot~;
#X obj 306 794 bng 15 250 50 0 empty empty empty 17 7 0 10 #fcfcfc
#000000 #000000;
#X obj 329 719 loadbang;
#X obj 329 741 bng 15 250 50 0 empty empty empty 17 7 0 10 #fcfcfc
#000000 #000000;
#X obj 330 761 metro 100;
#X floatatom 640 743 5 0 0 0 - - -, f 5;
#X obj 363 466 * 0.9;
#X floatatom 363 496 5 0 0 0 - - -, f 5;
#X obj 283 486 f;
#X floatatom 313 496 5 0 0 0 - - -, f 5;
#X obj 353 426 f;
#X obj 303 386 t b b f f;
#X obj 293 596 vline~;
#X obj 273 856 print 2;
#X obj 237 259 sel 0;
#X obj 589 354 bng 15 250 50 0 empty empty empty 17 7 0 10 #fcfcfc
#000000 #000000;
#X msg 513 796 0 \$1 0;
#X floatatom 378 357 5 0 0 0 - - -, f 5;
#X floatatom 424 487 5 0 0 0 - - -, f 5;
#X floatatom 544 530 5 0 0 0 - - -, f 5;
#X msg 313 556 \$1 \$3 \, \$2 \$4 \$3;
#X obj 323 526 pack f f f f;
#X obj 190 684 outlet~;
#X text 126 758 debug \, podpiac sygnal pod snaphot i print na wyjscie
snapshot - bedzie regularnie printowane, f 25;
#X text 59 47 velocity/ nacisk;
#X obj 302 80 inlet;
#X obj 429 72 inlet;
#X obj 539 67 inlet;
#X obj 663 71 inlet;
#X obj 1022 882 hsl 128 15 10 2000 0 1 empty empty empty -2 -8 0 10
#fcfcfc #000000 #000000 0 1;
#X text 1050 866 Attack;
#X text 288 49 Sustain;
#X text 425 42 Attack;
#X text 539 42 Decay;
#X text 658 47 Release;
#X connect 0 0 15 0;
#X connect 2 0 1 0;
#X connect 3 0 4 0;
#X connect 4 0 5 0;
#X connect 5 0 2 0;
#X connect 6 0 17 0;
#X connect 7 0 8 0;
#X connect 8 0 22 1;
#X connect 9 0 10 0;
#X connect 9 0 22 0;
#X connect 11 0 7 0;
#X connect 12 0 9 0;
#X connect 12 1 11 0;
#X connect 12 2 9 1;
#X connect 12 3 11 1;
#X connect 13 0 23 0;
#X connect 15 0 16 0;
#X connect 15 1 12 0;
#X connect 16 0 6 0;
#X connect 17 0 13 0;
#X connect 18 0 7 1;
#X connect 19 0 22 2;
#X connect 20 0 22 3;
#X connect 21 0 13 0;
#X connect 22 0 21 0;
#X connect 26 0 18 0;
#X connect 27 0 19 0;
#X connect 28 0 20 0;
#X connect 29 0 6 0;
#X restore 1393 108 pd ADSR;
#X obj 1406 -25 hsl 128 15 0 1 0 1 empty empty Sutain -2 -8 0 10 #fcfcfc
#000000 #000000 7100 1;
#X obj 1419 2 hsl 128 15 10 2000 0 1 empty empty Attack -2 -8 0 10
#fcfcfc #000000 #000000 1000 1;
#X obj 1433 29 hsl 128 15 10 2000 0 1 empty empty Decay -2 -8 0 10
#fcfcfc #000000 #000000 2300 1;
#X obj 1449 54 hsl 128 15 10 2000 0 1 empty empty Release -2 -8 0 10
#fcfcfc #000000 #000000 2700 1;
#X obj 1085 -348 vsl 19 101 60 1000 0 1 empty empty cutoff_f_mod 0
-9 0 10 #fcfcfc #000000 #000000 10000 1;
#X floatatom 146 -216 5 0 0 0 - - -, f 5;
#X obj 486 165 *~;
#N canvas 554 20 811 983 ADSR 0;
#X obj 73 71 inlet;
#X obj 272 821 snapshot~;
#X obj 306 794 bng 15 250 50 0 empty empty empty 17 7 0 10 #fcfcfc
#000000 #000000;
#X obj 329 719 loadbang;
#X obj 329 741 bng 15 250 50 0 empty empty empty 17 7 0 10 #fcfcfc
#000000 #000000;
#X obj 330 761 metro 100;
#X floatatom 640 743 5 0 0 0 - - -, f 5;
#X obj 363 466 * 0.9;
#X floatatom 363 496 5 0 0 0 - - -, f 5;
#X obj 283 486 f;
#X floatatom 313 496 5 0 0 0 - - -, f 5;
#X obj 353 426 f;
#X obj 303 386 t b b f f;
#X obj 293 596 vline~;
#X obj 273 856 print 2;
#X obj 237 259 sel 0;
#X obj 589 354 bng 15 250 50 0 empty empty empty 17 7 0 10 #fcfcfc
#000000 #000000;
#X msg 513 796 0 \$1 0;
#X floatatom 378 357 5 0 0 0 - - -, f 5;
#X floatatom 424 487 5 0 0 0 - - -, f 5;
#X floatatom 544 530 5 0 0 0 - - -, f 5;
#X msg 313 556 \$1 \$3 \, \$2 \$4 \$3;
#X obj 323 526 pack f f f f;
#X obj 190 684 outlet~;
#X text 126 758 debug \, podpiac sygnal pod snaphot i print na wyjscie
snapshot - bedzie regularnie printowane, f 25;
#X text 59 47 velocity/ nacisk;
#X obj 302 80 inlet;
#X obj 429 72 inlet;
#X obj 539 67 inlet;
#X obj 663 71 inlet;
#X obj 1022 882 hsl 128 15 10 2000 0 1 empty empty empty -2 -8 0 10
#fcfcfc #000000 #000000 0 1;
#X text 1050 866 Attack;
#X text 288 49 Sustain;
#X text 425 42 Attack;
#X text 539 42 Decay;
#X text 658 47 Release;
#X connect 0 0 15 0;
#X connect 2 0 1 0;
#X connect 3 0 4 0;
#X connect 4 0 5 0;
#X connect 5 0 2 0;
#X connect 6 0 17 0;
#X connect 7 0 8 0;
#X connect 8 0 22 1;
#X connect 9 0 10 0;
#X connect 9 0 22 0;
#X connect 11 0 7 0;
#X connect 12 0 9 0;
#X connect 12 1 11 0;
#X connect 12 2 9 1;
#X connect 12 3 11 1;
#X connect 13 0 23 0;
#X connect 15 0 16 0;
#X connect 15 1 12 0;
#X connect 16 0 6 0;
#X connect 17 0 13 0;
#X connect 18 0 7 1;
#X connect 19 0 22 2;
#X connect 20 0 22 3;
#X connect 21 0 13 0;
#X connect 22 0 21 0;
#X connect 26 0 18 0;
#X connect 27 0 19 0;
#X connect 28 0 20 0;
#X connect 29 0 6 0;
#X restore 76 122 pd ADSR;
#X obj 89 -12 hsl 128 15 0 1 0 1 empty empty Sutain -2 -8 0 10 #fcfcfc
#000000 #000000 10700 1;
#X obj 102 15 hsl 128 15 10 2000 0 1 empty empty Attack -2 -8 0 10
#fcfcfc #000000 #000000 1000 1;
#X obj 116 42 hsl 128 15 10 2000 0 1 empty empty Decay -2 -8 0 10 #fcfcfc
#000000 #000000 2300 1;
#X obj 132 67 hsl 128 15 10 2000 0 1 empty empty Release -2 -8 0 10
#fcfcfc #000000 #000000 2700 1;
#X obj 384 167 *~;
#X obj 442 205 +~;
#X obj 799 -380 vsl 15 128 0 30 0 1 empty empty vib\ F 0 -9 0 10 #fcfcfc
#000000 #000000 5800 1;
#X obj 754 -443 vradio 15 0 0 3 empty empty vib\ off/lin/log 0 -8 0
10 #fcfcfc #000000 #000000 0;
#X obj 613 -69 vsl 15 128 0 1 0 1 empty empty empty 0 -9 0 10 #fcfcfc
#000000 #000000 12700 1;
#X obj 581 49 tgl 15 0 empty empty empty 17 7 0 10 #fcfcfc #000000
#000000 0 1;
#N canvas 476 336 780 701 tremollo 0;
#X obj 117 295 osc~;
#X floatatom 188 202 5 0 1 0 - - -, f 5;
#X obj 217 365 +~;
#X obj 218 292 sig~;
#X floatatom 167 295 5 0 0 0 - - -, f 5;
#X floatatom 399 282 5 0 0 0 - - -, f 5;
#X obj 357 305 sig~;
#X obj 215 483 outlet~;
#X obj 137 335 *~;
#X obj 187 255 expr 0.5-(0.5*(1 - $f1));
#X obj 357 255 expr 0.5+((1 - $f1)*0.5);
#X text 408 225 stała;
#X text 107 225 zmienna;
#X obj 193 65 inlet;
#X obj 27 64 inlet;
#X text 186 36 % efektu \; 0-1;
#X text 45 33 on/off;
#X floatatom 20 203 5 0 0 0 - - -, f 5;
#X obj 75 307 1;
#X obj 75 364 sig~;
#X obj 62 407 mux~ 0 1;
#X obj 441 463 snapshot~;
#X obj 475 436 bng 15 250 50 0 empty empty empty 17 7 0 10 #fcfcfc
#000000 #000000;
#X obj 498 361 loadbang;
#X obj 498 383 bng 15 250 50 0 empty empty empty 17 7 0 10 #fcfcfc
#000000 #000000;
#X obj 499 403 metro 100;
#X obj 442 498 print 2;
#X obj 45 228 loadbang;
#X obj 45 250 bng 15 250 50 0 empty empty empty 17 7 0 10 #fcfcfc #000000
#000000;
#X floatatom 76 338 5 0 0 0 - - -, f 5;
#X obj 113 269 6;
#X text 426 10 tremollo - modulacja amplitudy sygnału;
#X connect 0 0 8 0;
#X connect 1 0 9 0;
#X connect 1 0 10 0;
#X connect 2 0 20 1;
#X connect 3 0 8 1;
#X connect 6 0 2 1;
#X connect 8 0 2 0;
#X connect 9 0 3 0;
#X connect 9 0 4 0;
#X connect 10 0 5 0;
#X connect 10 0 6 0;
#X connect 13 0 1 0;
#X connect 14 0 17 0;
#X connect 17 0 20 0;
#X connect 18 0 29 0;
#X connect 19 0 20 0;
#X connect 20 0 7 0;
#X connect 22 0 21 0;
#X connect 23 0 24 0;
#X connect 24 0 25 0;
#X connect 25 0 22 0;
#X connect 27 0 28 0;
#X connect 28 0 18 0;
#X connect 28 0 30 0;
#X connect 29 0 19 0;
#X connect 30 0 0 0;
#X restore 570 77 pd tremollo;
#X obj 866 -376 vsl 15 128 0 1 0 1 empty empty empty 0 -9 0 10 #fcfcfc
#000000 #000000 12700 1;
#X obj 482 81 *~;
#X obj 675 -826 ctlin;
#N canvas 319 8 526 561 control 0;
#X floatatom 65 139 5 0 1 0 - - -, f 5;
#X floatatom 165 141 5 0 0 0 - - -, f 5;
#X obj 58 75 inlet;
#X obj 165 75 inlet;
#X obj 66 165 / 127;
#X floatatom 82 291 5 0 0 0 - - -, f 5;
#X floatatom 183 295 5 0 0 0 - - -, f 5;
#X obj 210 369 outlet;
#X obj 21 367 outlet;
#X text 25 390 volume;
#X text 203 392 modulation;
#X text 50 49 value;
#X text 161 54 channel;
#X obj 65 245 demux 0 1 2 3 4 5 6 7 8 9;
#X connect 0 0 4 0;
#X connect 1 0 13 1;
#X connect 2 0 0 0;
#X connect 3 0 1 0;
#X connect 4 0 13 0;
#X connect 5 0 7 0;
#X connect 6 0 8 0;
#X connect 13 1 5 0;
#X connect 13 7 6 0;
#X restore 665 -745 pd control;
#X obj 684 -364 vsl 20 101 60 1000 0 1 empty empty cutoff_f_mod 0 -9
0 10 #fcfcfc #000000 #000000 3200 1;
#X floatatom 1273 -609 4 0 1 0 - - -, f 4;
#X floatatom 1312 -611 4 0 1 0 - - -, f 4;
#X obj 1282 -521 pack 0 0 0;
#X obj 1281 -556 poly 5 1;
#X obj 1287 -477 route 1 2 3 4 5;
#X obj 1295 -419 unpack;
#X floatatom 1269 -384 5 0 0 0 - - -, f 5;
#X floatatom 1310 -382 5 0 0 0 - - -, f 5;
#X obj 1351 -418 unpack;
#X floatatom 1350 -379 5 0 0 0 - - -, f 5;
#X floatatom 1390 -380 5 0 0 0 - - -, f 5;
#X obj 1436 -418 unpack;
#X floatatom 1433 -379 5 0 0 0 - - -, f 5;
#X floatatom 1472 -378 5 0 0 0 - - -, f 5;
#X obj 1511 -415 unpack;
#X floatatom 1515 -379 5 0 0 0 - - -, f 5;
#X floatatom 1550 -379 5 0 0 0 - - -, f 5;
#X obj 1576 -418 unpack;
#X floatatom 1592 -378 5 0 0 0 - - -, f 5;
#X floatatom 1633 -375 5 0 0 0 - - -, f 5;
#X obj 1312 -587 / 127;
#N canvas 1912 235 1296 984 substractive_gen 1;
#X obj 135 131 inlet;
#X text 271 37 sawtooth;
#X text 129 110 note_mod;
#X obj 33 74 inlet;
#X text 35 42 note;
#X obj 79 194 +;
#X obj 77 219 mtof;
#X floatatom 78 245 5 0 0 0 - - -, f 5;
#N canvas 977 478 450 300 sawtooth 0;
#X obj 131 77 phasor~ 440;
#X obj 133 101 *~ 2;
#X obj 133 126 -~ 1;
#X obj 131 49 inlet~;
#X obj 132 164 outlet~;
#X connect 0 0 1 0;
#X connect 1 0 2 0;
#X connect 2 0 4 0;
#X connect 3 0 0 0;
#X restore 77 295 pd sawtooth;
#N canvas 735 362 450 300 s_lop 0;
#X obj 191 102 svf~;
#X obj 191 127 outlet~;
#X obj 122 48 inlet~;
#X text 119 26 signal;
#X text 210 27 cutoff_freq;
#X obj 212 49 inlet~;
#X obj 296 86 0.5;
#X obj 309 54 loadbang;
#X connect 0 0 1 0;
#X connect 2 0 0 0;
#X connect 5 0 0 1;
#X connect 6 0 0 2;
#X connect 7 0 6 0;
#X restore 77 324 pd s_lop;
#X obj 216 134 inlet;
#X obj 288 136 inlet;
#X text 216 107 volume;
#X text 282 107 on/off;
#X obj 119 394 *~ 0;
#X obj 119 355 *~ 0;
#X floatatom 215 163 5 0 0 0 - - -, f 5;
#X floatatom 288 161 5 0 0 0 - - -, f 5;
#N canvas 0 0 1366 715 vibrato 0;
#X obj 175 292 osc~;
#X floatatom 246 215 5 0 1 0 - - -, f 5;
#X obj 275 362 +~;
#X obj 230 292 sig~;
#X obj 321 307 sig~;
#X obj 228 633 outlet~;
#X obj 195 332 *~;
#X text 340 233 stała;
#X text 191 263 zmienna;
#X obj 251 62 inlet;
#X obj 27 64 inlet;
#X text 29 36 on/off;
#X floatatom 20 203 5 0 0 0 - - -, f 5;
#X obj 75 307 1;
#X obj 75 364 sig~;
#X obj 760 609 snapshot~;
#X obj 794 582 bng 15 250 50 0 empty empty empty 17 7 0 10 #fcfcfc
#000000 #000000;
#X obj 817 507 loadbang;
#X obj 817 529 bng 15 250 50 0 empty empty empty 17 7 0 10 #fcfcfc
#000000 #000000;
#X obj 818 549 metro 100;
#X obj 770 655 print 2;
#X obj 45 228 loadbang;
#X obj 45 250 bng 15 250 50 0 empty empty empty 17 7 0 10 #fcfcfc #000000
#000000;
#X floatatom 76 338 5 0 0 0 - - -, f 5;
#X text 375 7 vibrato - modulacja częstotliwości sygnału;
#X obj 161 67 inlet;
#X floatatom 162 230 5 0 0 0 - - -, f 5;
#X text 151 28 częstotliwość 0 - 30 Hz, f 13;
#X text 243 30 % efektu \; 0-1, f 21;
#X obj 321 257 1;
#X obj 280 232 bng 15 250 50 0 empty empty empty 17 7 0 10 #fcfcfc
#000000 #000000;
#X floatatom 322 281 5 0 0 0 - - -, f 5;
#X obj 500 308 osc~;
#X floatatom 571 177 5 0 1 0 - - -, f 5;
#X obj 607 384 +~;
#X obj 555 308 sig~;
#X obj 646 323 sig~;
#X obj 520 348 *~;
#X text 665 249 stała;
#X text 516 279 zmienna;
#X floatatom 485 214 5 0 0 0 - - -, f 5;
#X obj 605 248 bng 15 250 50 0 empty empty empty 17 7 0 10 #fcfcfc
#000000 #000000;
#X floatatom 647 297 5 0 0 0 - - -, f 5;
#X floatatom 475 115 5 0 0 0 - - -, f 5;
#X obj 646 273 1.25;
#X obj 537 151 expr $f1 * 0.75;
#X text 704 269 oscyluje od 0.5 do 2 ale z punktem śrdokowym w 1.25
\, a nie w 1 tak jak powinno jeżeli byłaby to skala logarytmiczna
\;  \; TODO - czy da się zrobić w faktycznej logarytmicznej?
, f 31;
#X obj 32 438 mux~ 0 1 2;
#X connect 0 0 6 0;
#X connect 1 0 3 0;
#X connect 1 0 30 0;
#X connect 2 0 47 1;
#X connect 3 0 6 1;
#X connect 4 0 2 1;
#X connect 6 0 2 0;
#X connect 9 0 1 0;
#X connect 9 0 43 0;
#X connect 10 0 12 0;
#X connect 12 0 47 0;
#X connect 13 0 23 0;
#X connect 14 0 47 0;
#X connect 16 0 15 0;
#X connect 17 0 18 0;
#X connect 18 0 19 0;
#X connect 19 0 16 0;
#X connect 21 0 22 0;
#X connect 22 0 13 0;
#X connect 23 0 14 0;
#X connect 25 0 26 0;
#X connect 25 0 40 0;
#X connect 26 0 0 0;
#X connect 29 0 31 0;
#X connect 30 0 29 0;
#X connect 31 0 4 0;
#X connect 32 0 37 0;
#X connect 33 0 35 0;
#X connect 33 0 41 0;
#X connect 34 0 47 2;
#X connect 35 0 37 1;
#X connect 36 0 34 1;
#X connect 37 0 34 0;
#X connect 40 0 32 0;
#X connect 41 0 44 0;
#X connect 42 0 36 0;
#X connect 43 0 45 0;
#X connect 44 0 42 0;
#X connect 45 0 33 0;
#X connect 47 0 5 0;
#X restore 565 203 pd vibrato;
#X obj 339 246 *~;
#X obj 332 277 +~ 60;
#X text 379 107 lop_mod;
#X obj 378 133 inlet;
#X floatatom 378 158 5 0 0 0 - - -, f 5;
#X text 545 31 vibrato_lop;
#X obj 511 125 inlet;
#X obj 583 127 inlet;
#X floatatom 510 154 5 0 0 0 - - -, f 5;
#X floatatom 583 152 5 0 0 0 - - -, f 5;
#X obj 673 124 inlet;
#X floatatom 673 149 5 0 0 0 - - -, f 5;
#X text 503 91 on/off;
#X text 574 86 freq;
#X obj 545 662 outlet~;
#X floatatom 33 100 5 0 0 0 - - -, f 5;
#X floatatom 137 160 5 0 0 0 - - -, f 5;
#X obj 943 451 *~ 0;
#X obj 942 423 *~ 0;
#X obj 837 271 +;
#X obj 837 297 mtof;
#X obj 920 274 *~;
#N canvas 735 362 450 300 s_lop 0;
#X obj 191 102 svf~;
#X obj 191 127 outlet~;
#X obj 122 48 inlet~;
#X text 119 26 signal;
#X text 210 27 cutoff_freq;
#X obj 212 49 inlet~;
#X obj 296 86 0.5;
#X obj 309 54 loadbang;
#X connect 0 0 1 0;
#X connect 2 0 0 0;
#X connect 5 0 0 1;
#X connect 6 0 0 2;
#X connect 7 0 6 0;
#X restore 837 389 pd s_lop;
#N canvas 599 437 450 300 square 0;
#X obj 104 104 expr~ $v1 > 0.5;
#X obj 104 74 phasor~ 440;
#X obj 103 26 inlet~;
#X obj 105 133 outlet~;
#X connect 0 0 3 0;
#X connect 1 0 0 0;
#X connect 2 0 1 0;
#X restore 838 354 pd square;
#X obj 922 324 +~ 60;
#X obj 837 323 sig~;
#X obj 765 119 inlet;
#X floatatom 765 144 5 0 0 0 - - -, f 5;
#X text 669 87 effect % saw, f 10;
#X text 761 86 effect % sq, f 9;
#N canvas 0 0 1366 715 vibrato 0;
#X obj 175 292 osc~;
#X floatatom 246 215 5 0 1 0 - - -, f 5;
#X obj 275 362 +~;
#X obj 230 292 sig~;
#X obj 321 307 sig~;
#X obj 228 633 outlet~;
#X obj 195 332 *~;
#X text 340 233 stała;
#X text 191 263 zmienna;
#X obj 251 62 inlet;
#X obj 27 64 inlet;
#X text 29 36 on/off;
#X floatatom 20 203 5 0 0 0 - - -, f 5;
#X obj 75 307 1;
#X obj 75 364 sig~;
#X obj 760 609 snapshot~;
#X obj 794 582 bng 15 250 50 0 empty empty empty 17 7 0 10 #fcfcfc
#000000 #000000;
#X obj 817 507 loadbang;
#X obj 817 529 bng 15 250 50 0 empty empty empty 17 7 0 10 #fcfcfc
#000000 #000000;
#X obj 818 549 metro 100;
#X obj 770 655 print 2;
#X obj 45 228 loadbang;
#X obj 45 250 bng 15 250 50 0 empty empty empty 17 7 0 10 #fcfcfc #000000
#000000;
#X floatatom 76 338 5 0 0 0 - - -, f 5;
#X text 375 7 vibrato - modulacja częstotliwości sygnału;
#X obj 161 67 inlet;
#X floatatom 162 230 5 0 0 0 - - -, f 5;
#X text 151 28 częstotliwość 0 - 30 Hz, f 13;
#X text 243 30 % efektu \; 0-1, f 21;
#X obj 321 257 1;
#X obj 280 232 bng 15 250 50 0 empty empty empty 17 7 0 10 #fcfcfc
#000000 #000000;
#X floatatom 322 281 5 0 0 0 - - -, f 5;
#X obj 500 308 osc~;
#X floatatom 571 177 5 0 1 0 - - -, f 5;
#X obj 607 384 +~;
#X obj 555 308 sig~;
#X obj 646 323 sig~;
#X obj 520 348 *~;
#X text 665 249 stała;
#X text 516 279 zmienna;
#X floatatom 485 214 5 0 0 0 - - -, f 5;
#X obj 605 248 bng 15 250 50 0 empty empty empty 17 7 0 10 #fcfcfc
#000000 #000000;
#X floatatom 647 297 5 0 0 0 - - -, f 5;
#X floatatom 475 115 5 0 0 0 - - -, f 5;
#X obj 646 273 1.25;
#X obj 537 151 expr $f1 * 0.75;
#X text 704 269 oscyluje od 0.5 do 2 ale z punktem śrdokowym w 1.25
\, a nie w 1 tak jak powinno jeżeli byłaby to skala logarytmiczna
\;  \; TODO - czy da się zrobić w faktycznej logarytmicznej?
, f 31;
#X obj 32 438 mux~ 0 1 2;
#X connect 0 0 6 0;
#X connect 1 0 3 0;
#X connect 1 0 30 0;
#X connect 2 0 47 1;
#X connect 3 0 6 1;
#X connect 4 0 2 1;
#X connect 6 0 2 0;
#X connect 9 0 1 0;
#X connect 9 0 43 0;
#X connect 10 0 12 0;
#X connect 12 0 47 0;
#X connect 13 0 23 0;
#X connect 14 0 47 0;
#X connect 16 0 15 0;
#X connect 17 0 18 0;
#X connect 18 0 19 0;
#X connect 19 0 16 0;
#X connect 21 0 22 0;
#X connect 22 0 13 0;
#X connect 23 0 14 0;
#X connect 25 0 26 0;
#X connect 25 0 40 0;
#X connect 26 0 0 0;
#X connect 29 0 31 0;
#X connect 30 0 29 0;
#X connect 31 0 4 0;
#X connect 32 0 37 0;
#X connect 33 0 35 0;
#X connect 33 0 41 0;
#X connect 34 0 47 2;
#X connect 35 0 37 1;
#X connect 36 0 34 1;
#X connect 37 0 34 0;
#X connect 40 0 32 0;
#X connect 41 0 44 0;
#X connect 42 0 36 0;
#X connect 43 0 45 0;
#X connect 44 0 42 0;
#X connect 45 0 33 0;
#X connect 47 0 5 0;
#X restore 707 202 pd vibrato;
#X obj 900 112 inlet;
#X text 894 91 note_mod;
#X obj 981 115 inlet;
#X obj 1053 117 inlet;
#X text 981 88 volume;
#X text 1047 88 on/off;
#X floatatom 980 144 5 0 0 0 - - -, f 5;
#X floatatom 1053 142 5 0 0 0 - - -, f 5;
#X text 1144 88 lop_mod;
#X obj 1143 114 inlet;
#X floatatom 1143 139 5 0 0 0 - - -, f 5;
#X floatatom 902 141 5 0 0 0 - - -, f 5;
#X text 1003 46 square;
#X floatatom 153 20 5 0 0 0 - - -, f 5;
#X floatatom 840 17 5 0 0 0 - - -, f 5;
#X obj 78 270 sig~;
#X obj 479 407 snapshot~;
#X obj 513 380 bng 15 250 50 0 empty empty empty 17 7 0 10 #fcfcfc
#000000 #000000;
#X obj 536 327 bng 15 250 50 0 empty empty empty 17 7 0 10 #fcfcfc
#000000 #000000;
#X obj 537 347 metro 100;
#X obj 489 453 print 2;
#X obj 544 621 +~;
#X connect 0 0 35 0;
#X connect 3 0 34 0;
#X connect 5 0 6 0;
#X connect 6 0 7 0;
#X connect 7 0 65 0;
#X connect 8 0 9 0;
#X connect 9 0 15 0;
#X connect 10 0 16 0;
#X connect 11 0 17 0;
#X connect 14 0 71 0;
#X connect 15 0 14 0;
#X connect 16 0 15 1;
#X connect 17 0 14 1;
#X connect 18 0 19 0;
#X connect 19 0 20 0;
#X connect 20 0 9 1;
#X connect 22 0 23 0;
#X connect 23 0 19 1;
#X connect 25 0 27 0;
#X connect 26 0 28 0;
#X connect 27 0 18 0;
#X connect 27 0 49 0;
#X connect 28 0 18 1;
#X connect 28 0 49 1;
#X connect 29 0 30 0;
#X connect 30 0 18 2;
#X connect 34 0 5 0;
#X connect 34 0 63 0;
#X connect 35 0 5 1;
#X connect 36 0 71 1;
#X connect 37 0 36 0;
#X connect 38 0 39 0;
#X connect 39 0 44 0;
#X connect 40 0 43 0;
#X connect 41 0 37 0;
#X connect 42 0 41 0;
#X connect 43 0 41 1;
#X connect 44 0 42 0;
#X connect 45 0 46 0;
#X connect 46 0 49 2;
#X connect 49 0 40 0;
#X connect 50 0 61 0;
#X connect 52 0 56 0;
#X connect 53 0 57 0;
#X connect 56 0 37 1;
#X connect 57 0 36 1;
#X connect 59 0 60 0;
#X connect 60 0 40 1;
#X connect 61 0 38 1;
#X connect 63 0 64 0;
#X connect 64 0 38 0;
#X connect 65 0 8 0;
#X connect 67 0 66 0;
#X connect 68 0 69 0;
#X connect 69 0 67 0;
#X connect 71 0 33 0;
#X restore 503 -233 pd substractive_gen;
#X f 101;
#N canvas 735 362 450 300 s_lop 0;
#X obj 191 102 svf~;
#X obj 191 127 outlet~;
#X obj 122 48 inlet~;
#X text 119 26 signal;
#X text 210 27 cutoff_freq;
#X obj 212 49 inlet~;
#X obj 296 86 0.5;
#X obj 309 54 loadbang;
#X connect 0 0 1 0;
#X connect 2 0 0 0;
#X connect 5 0 0 1;
#X connect 6 0 0 2;
#X connect 7 0 6 0;
#X restore 66 -260 pd s_lop;
#X obj 27 -300 noise~;
#X obj 116 -441 vsl 15 128 60 2000 0 1 empty empty empty 0 -9 0 10
#fcfcfc #000000 #000000 0 1;
#X obj 110 -300 sig~;
#X obj 497 -792 stripnote;
#X text 618 -427 sawtooth;
#X obj 886 -374 vsl 15 128 0 1 0 1 empty empty empty 0 -9 0 10 #fcfcfc
#000000 #000000 10850 1;
#X floatatom 874 -443 5 0 0 0 - - -, f 5;
#X floatatom 1001 -604 5 0 0 0 - - -, f 5;
#X floatatom 538 -736 5 0 0 0 - - -, f 5;
#X obj 539 -767 / 127;
#X floatatom 15 -711 5 0 0 0 - - -, f 5;
#X floatatom 1322 -679 5 0 0 0 - - -, f 5;
#X connect 0 0 30 0;
#X connect 1 0 0 1;
#X connect 2 0 0 0;
#X connect 3 0 23 0;
#X connect 4 0 63 3;
#X connect 5 0 63 2;
#X connect 6 0 63 11;
#X connect 7 0 63 10;
#X connect 8 0 42 0;
#X connect 8 0 68 0;
#X connect 8 1 43 0;
#X connect 8 1 68 1;
#X connect 9 0 63 1;
#X connect 10 0 11 0;
#X connect 11 0 9 0;
#X connect 12 0 63 9;
#X connect 13 0 14 0;
#X connect 14 0 12 0;
#X connect 15 0 63 0;
#X connect 17 0 24 1;
#X connect 18 0 17 1;
#X connect 19 0 17 2;
#X connect 20 0 17 3;
#X connect 21 0 17 4;
#X connect 22 0 63 12;
#X connect 23 0 2 1;
#X connect 24 0 31 1;
#X connect 25 0 30 1;
#X connect 26 0 25 1;
#X connect 27 0 25 2;
#X connect 28 0 25 3;
#X connect 29 0 25 4;
#X connect 30 0 31 0;
#X connect 31 0 16 0;
#X connect 31 0 16 1;
#X connect 32 0 63 6;
#X connect 33 0 63 5;
#X connect 34 0 36 1;
#X connect 35 0 36 0;
#X connect 36 0 38 1;
#X connect 37 0 63 7;
#X connect 38 0 24 0;
#X connect 39 0 40 0;
#X connect 39 1 40 1;
#X connect 40 0 5 0;
#X connect 40 0 72 0;
#X connect 40 1 71 0;
#X connect 41 0 63 4;
#X connect 42 0 45 0;
#X connect 43 0 62 0;
#X connect 44 0 46 0;
#X connect 45 0 44 0;
#X connect 45 1 44 1;
#X connect 45 2 44 2;
#X connect 46 0 47 0;
#X connect 46 1 50 0;
#X connect 46 2 53 0;
#X connect 46 3 56 0;
#X connect 46 4 59 0;
#X connect 47 0 48 0;
#X connect 47 1 49 0;
#X connect 50 0 51 0;
#X connect 50 1 52 0;
#X connect 53 0 54 0;
#X connect 53 1 55 0;
#X connect 56 0 57 0;
#X connect 56 1 58 0;
#X connect 59 0 60 0;
#X connect 59 1 61 0;
#X connect 62 0 45 1;
#X connect 63 0 38 0;
#X connect 64 0 2 0;
#X connect 65 0 64 0;
#X connect 66 0 67 0;
#X connect 67 0 64 1;
#X connect 68 0 15 0;
#X connect 68 1 74 0;
#X connect 70 0 63 8;
#X connect 71 0 37 0;
#X connect 71 0 70 0;
#X connect 72 0 7 0;
#X connect 73 0 75 0;
#X connect 73 0 76 0;
#X connect 74 0 73 0;
#X connect 75 0 25 0;
#X connect 76 0 17 0;
