#N canvas 1129 435 450 300 10;
#X obj 232 -880 inlet;
#X text 368 -974 sawtooth;
#X text 226 -901 note_mod;
#X obj 130 -937 inlet;
#X text 132 -969 note;
#X obj 176 -817 +;
#X obj 174 -792 mtof;
#X floatatom 175 -766 5 0 0 0 - - -, f 5;
#N canvas 977 478 450 300 sawtooth 0;
#X obj 131 77 phasor~ 440;
#X obj 133 101 *~ 2;
#X obj 133 126 -~ 1;
#X obj 131 49 inlet~;
#X obj 132 164 outlet~;
#X connect 0 0 1 0;
#X connect 1 0 2 0;
#X connect 2 0 4 0;
#X connect 3 0 0 0;
#X restore 174 -716 pd sawtooth;
#N canvas 735 362 450 300 s_lop 0;
#X obj 191 102 svf~;
#X obj 191 127 outlet~;
#X obj 122 48 inlet~;
#X text 119 26 signal;
#X text 210 27 cutoff_freq;
#X obj 212 49 inlet~;
#X obj 296 86 0.5;
#X obj 309 54 loadbang;
#X connect 0 0 1 0;
#X connect 2 0 0 0;
#X connect 5 0 0 1;
#X connect 6 0 0 2;
#X connect 7 0 6 0;
#X restore 174 -687 pd s_lop;
#X obj 313 -877 inlet;
#X obj 385 -875 inlet;
#X text 313 -904 volume;
#X text 379 -904 on/off;
#X obj 216 -617 *~ 0;
#X obj 216 -656 *~ 0;
#X floatatom 312 -848 5 0 0 0 - - -, f 5;
#X floatatom 385 -850 5 0 0 0 - - -, f 5;
#N canvas 0 0 1366 715 vibrato 0;
#X obj 175 292 osc~;
#X floatatom 246 215 5 0 1 0 - - -, f 5;
#X obj 275 362 +~;
#X obj 230 292 sig~;
#X obj 321 307 sig~;
#X obj 228 633 outlet~;
#X obj 195 332 *~;
#X text 340 233 stała;
#X text 191 263 zmienna;
#X obj 251 62 inlet;
#X obj 27 64 inlet;
#X text 29 36 on/off;
#X floatatom 20 203 5 0 0 0 - - -, f 5;
#X obj 75 307 1;
#X obj 75 364 sig~;
#X obj 760 609 snapshot~;
#X obj 794 582 bng 15 250 50 0 empty empty empty 17 7 0 10 #fcfcfc
#000000 #000000;
#X obj 817 507 loadbang;
#X obj 817 529 bng 15 250 50 0 empty empty empty 17 7 0 10 #fcfcfc
#000000 #000000;
#X obj 818 549 metro 100;
#X obj 770 655 print 2;
#X obj 45 228 loadbang;
#X obj 45 250 bng 15 250 50 0 empty empty empty 17 7 0 10 #fcfcfc #000000
#000000;
#X floatatom 76 338 5 0 0 0 - - -, f 5;
#X text 375 7 vibrato - modulacja częstotliwości sygnału;
#X obj 161 67 inlet;
#X floatatom 162 230 5 0 0 0 - - -, f 5;
#X text 151 28 częstotliwość 0 - 30 Hz, f 13;
#X text 243 30 % efektu \; 0-1, f 21;
#X obj 321 257 1;
#X obj 280 232 bng 15 250 50 0 empty empty empty 17 7 0 10 #fcfcfc
#000000 #000000;
#X floatatom 322 281 5 0 0 0 - - -, f 5;
#X obj 500 308 osc~;
#X floatatom 571 177 5 0 1 0 - - -, f 5;
#X obj 607 384 +~;
#X obj 555 308 sig~;
#X obj 646 323 sig~;
#X obj 520 348 *~;
#X text 665 249 stała;
#X text 516 279 zmienna;
#X floatatom 485 214 5 0 0 0 - - -, f 5;
#X obj 605 248 bng 15 250 50 0 empty empty empty 17 7 0 10 #fcfcfc
#000000 #000000;
#X floatatom 647 297 5 0 0 0 - - -, f 5;
#X floatatom 475 115 5 0 0 0 - - -, f 5;
#X obj 646 273 1.25;
#X obj 537 151 expr $f1 * 0.75;
#X text 704 269 oscyluje od 0.5 do 2 ale z punktem śrdokowym w 1.25
\, a nie w 1 tak jak powinno jeżeli byłaby to skala logarytmiczna
\;  \; TODO - czy da się zrobić w faktycznej logarytmicznej?
, f 31;
#X obj 32 438 mux~ 0 1 2;
#X connect 0 0 6 0;
#X connect 1 0 3 0;
#X connect 1 0 30 0;
#X connect 2 0 47 1;
#X connect 3 0 6 1;
#X connect 4 0 2 1;
#X connect 6 0 2 0;
#X connect 9 0 1 0;
#X connect 9 0 43 0;
#X connect 10 0 12 0;
#X connect 12 0 47 0;
#X connect 13 0 23 0;
#X connect 14 0 47 0;
#X connect 16 0 15 0;
#X connect 17 0 18 0;
#X connect 18 0 19 0;
#X connect 19 0 16 0;
#X connect 21 0 22 0;
#X connect 22 0 13 0;
#X connect 23 0 14 0;
#X connect 25 0 26 0;
#X connect 25 0 40 0;
#X connect 26 0 0 0;
#X connect 29 0 31 0;
#X connect 30 0 29 0;
#X connect 31 0 4 0;
#X connect 32 0 37 0;
#X connect 33 0 35 0;
#X connect 33 0 41 0;
#X connect 34 0 47 2;
#X connect 35 0 37 1;
#X connect 36 0 34 1;
#X connect 37 0 34 0;
#X connect 40 0 32 0;
#X connect 41 0 44 0;
#X connect 42 0 36 0;
#X connect 43 0 45 0;
#X connect 44 0 42 0;
#X connect 45 0 33 0;
#X connect 47 0 5 0;
#X restore 662 -808 pd vibrato;
#X obj 436 -765 *~;
#X obj 429 -734 +~ 60;
#X text 476 -904 lop_mod;
#X obj 475 -878 inlet;
#X floatatom 475 -853 5 0 0 0 - - -, f 5;
#X text 642 -980 vibrato_lop;
#X obj 608 -886 inlet;
#X obj 680 -884 inlet;
#X floatatom 607 -857 5 0 0 0 - - -, f 5;
#X floatatom 680 -859 5 0 0 0 - - -, f 5;
#X obj 770 -887 inlet;
#X floatatom 770 -862 5 0 0 0 - - -, f 5;
#X text 600 -920 on/off;
#X text 671 -925 freq;
#X obj 642 -349 outlet~;
#X floatatom 130 -911 5 0 0 0 - - -, f 5;
#X floatatom 234 -851 5 0 0 0 - - -, f 5;
#X obj 1040 -560 *~ 0;
#X obj 1039 -588 *~ 0;
#X obj 934 -740 +;
#X obj 934 -714 mtof;
#X obj 1017 -737 *~;
#N canvas 735 362 450 300 s_lop 0;
#X obj 191 102 svf~;
#X obj 191 127 outlet~;
#X obj 122 48 inlet~;
#X text 119 26 signal;
#X text 210 27 cutoff_freq;
#X obj 212 49 inlet~;
#X obj 296 86 0.5;
#X obj 309 54 loadbang;
#X connect 0 0 1 0;
#X connect 2 0 0 0;
#X connect 5 0 0 1;
#X connect 6 0 0 2;
#X connect 7 0 6 0;
#X restore 934 -622 pd s_lop;
#N canvas 599 437 450 300 square 0;
#X obj 104 104 expr~ $v1 > 0.5;
#X obj 104 74 phasor~ 440;
#X obj 103 26 inlet~;
#X obj 105 133 outlet~;
#X connect 0 0 3 0;
#X connect 1 0 0 0;
#X connect 2 0 1 0;
#X restore 935 -657 pd square;
#X obj 1019 -687 +~ 60;
#X obj 934 -688 sig~;
#X obj 862 -892 inlet;
#X floatatom 862 -867 5 0 0 0 - - -, f 5;
#X text 766 -924 effect % saw, f 10;
#X text 858 -925 effect % sq, f 9;
#N canvas 0 0 1366 715 vibrato 0;
#X obj 175 292 osc~;
#X floatatom 246 215 5 0 1 0 - - -, f 5;
#X obj 275 362 +~;
#X obj 230 292 sig~;
#X obj 321 307 sig~;
#X obj 228 633 outlet~;
#X obj 195 332 *~;
#X text 340 233 stała;
#X text 191 263 zmienna;
#X obj 251 62 inlet;
#X obj 27 64 inlet;
#X text 29 36 on/off;
#X floatatom 20 203 5 0 0 0 - - -, f 5;
#X obj 75 307 1;
#X obj 75 364 sig~;
#X obj 760 609 snapshot~;
#X obj 794 582 bng 15 250 50 0 empty empty empty 17 7 0 10 #fcfcfc
#000000 #000000;
#X obj 817 507 loadbang;
#X obj 817 529 bng 15 250 50 0 empty empty empty 17 7 0 10 #fcfcfc
#000000 #000000;
#X obj 818 549 metro 100;
#X obj 770 655 print 2;
#X obj 45 228 loadbang;
#X obj 45 250 bng 15 250 50 0 empty empty empty 17 7 0 10 #fcfcfc #000000
#000000;
#X floatatom 76 338 5 0 0 0 - - -, f 5;
#X text 375 7 vibrato - modulacja częstotliwości sygnału;
#X obj 161 67 inlet;
#X floatatom 162 230 5 0 0 0 - - -, f 5;
#X text 151 28 częstotliwość 0 - 30 Hz, f 13;
#X text 243 30 % efektu \; 0-1, f 21;
#X obj 321 257 1;
#X obj 280 232 bng 15 250 50 0 empty empty empty 17 7 0 10 #fcfcfc
#000000 #000000;
#X floatatom 322 281 5 0 0 0 - - -, f 5;
#X obj 500 308 osc~;
#X floatatom 571 177 5 0 1 0 - - -, f 5;
#X obj 607 384 +~;
#X obj 555 308 sig~;
#X obj 646 323 sig~;
#X obj 520 348 *~;
#X text 665 249 stała;
#X text 516 279 zmienna;
#X floatatom 485 214 5 0 0 0 - - -, f 5;
#X obj 605 248 bng 15 250 50 0 empty empty empty 17 7 0 10 #fcfcfc
#000000 #000000;
#X floatatom 647 297 5 0 0 0 - - -, f 5;
#X floatatom 475 115 5 0 0 0 - - -, f 5;
#X obj 646 273 1.25;
#X obj 537 151 expr $f1 * 0.75;
#X text 704 269 oscyluje od 0.5 do 2 ale z punktem śrdokowym w 1.25
\, a nie w 1 tak jak powinno jeżeli byłaby to skala logarytmiczna
\;  \; TODO - czy da się zrobić w faktycznej logarytmicznej?
, f 31;
#X obj 32 438 mux~ 0 1 2;
#X connect 0 0 6 0;
#X connect 1 0 3 0;
#X connect 1 0 30 0;
#X connect 2 0 47 1;
#X connect 3 0 6 1;
#X connect 4 0 2 1;
#X connect 6 0 2 0;
#X connect 9 0 1 0;
#X connect 9 0 43 0;
#X connect 10 0 12 0;
#X connect 12 0 47 0;
#X connect 13 0 23 0;
#X connect 14 0 47 0;
#X connect 16 0 15 0;
#X connect 17 0 18 0;
#X connect 18 0 19 0;
#X connect 19 0 16 0;
#X connect 21 0 22 0;
#X connect 22 0 13 0;
#X connect 23 0 14 0;
#X connect 25 0 26 0;
#X connect 25 0 40 0;
#X connect 26 0 0 0;
#X connect 29 0 31 0;
#X connect 30 0 29 0;
#X connect 31 0 4 0;
#X connect 32 0 37 0;
#X connect 33 0 35 0;
#X connect 33 0 41 0;
#X connect 34 0 47 2;
#X connect 35 0 37 1;
#X connect 36 0 34 1;
#X connect 37 0 34 0;
#X connect 40 0 32 0;
#X connect 41 0 44 0;
#X connect 42 0 36 0;
#X connect 43 0 45 0;
#X connect 44 0 42 0;
#X connect 45 0 33 0;
#X connect 47 0 5 0;
#X restore 804 -809 pd vibrato;
#X obj 997 -899 inlet;
#X text 991 -920 note_mod;
#X obj 1078 -896 inlet;
#X obj 1150 -894 inlet;
#X text 1078 -923 volume;
#X text 1144 -923 on/off;
#X floatatom 1077 -867 5 0 0 0 - - -, f 5;
#X floatatom 1150 -869 5 0 0 0 - - -, f 5;
#X text 1241 -923 lop_mod;
#X obj 1240 -897 inlet;
#X floatatom 1240 -872 5 0 0 0 - - -, f 5;
#X floatatom 999 -870 5 0 0 0 - - -, f 5;
#X text 1100 -965 square;
#X floatatom 250 -991 5 0 0 0 - - -, f 5;
#X floatatom 937 -994 5 0 0 0 - - -, f 5;
#X obj 175 -741 sig~;
#X obj 576 -604 snapshot~;
#X obj 610 -631 bng 15 250 50 0 empty empty empty 17 7 0 10 #fcfcfc
#000000 #000000;
#X obj 633 -684 bng 15 250 50 0 empty empty empty 17 7 0 10 #fcfcfc
#000000 #000000;
#X obj 634 -664 metro 100;
#X obj 586 -558 print 2;
#X obj 641 -390 +~;
#X connect 0 0 35 0;
#X connect 3 0 34 0;
#X connect 5 0 6 0;
#X connect 6 0 7 0;
#X connect 7 0 65 0;
#X connect 8 0 9 0;
#X connect 9 0 15 0;
#X connect 10 0 16 0;
#X connect 11 0 17 0;
#X connect 14 0 71 0;
#X connect 15 0 14 0;
#X connect 16 0 15 1;
#X connect 17 0 14 1;
#X connect 18 0 19 0;
#X connect 19 0 20 0;
#X connect 20 0 9 1;
#X connect 22 0 23 0;
#X connect 23 0 19 1;
#X connect 25 0 27 0;
#X connect 26 0 28 0;
#X connect 27 0 18 0;
#X connect 27 0 49 0;
#X connect 28 0 18 1;
#X connect 28 0 49 1;
#X connect 29 0 30 0;
#X connect 30 0 18 2;
#X connect 34 0 5 0;
#X connect 34 0 63 0;
#X connect 35 0 5 1;
#X connect 36 0 71 1;
#X connect 37 0 36 0;
#X connect 38 0 39 0;
#X connect 39 0 44 0;
#X connect 40 0 43 0;
#X connect 41 0 37 0;
#X connect 42 0 41 0;
#X connect 43 0 41 1;
#X connect 44 0 42 0;
#X connect 45 0 46 0;
#X connect 46 0 49 2;
#X connect 49 0 40 0;
#X connect 50 0 61 0;
#X connect 52 0 56 0;
#X connect 53 0 57 0;
#X connect 56 0 37 1;
#X connect 57 0 36 1;
#X connect 59 0 60 0;
#X connect 60 0 40 1;
#X connect 61 0 38 1;
#X connect 63 0 64 0;
#X connect 64 0 38 0;
#X connect 65 0 8 0;
#X connect 67 0 66 0;
#X connect 68 0 69 0;
#X connect 69 0 67 0;
#X connect 71 0 33 0;
