#N canvas -7 0 697 689 10;
#X floatatom 140 336 5 0 10000 0 - - -, f 5;
#X obj 167 426 osc~;
#X obj 201 286 osc~;
#X obj 144 360 sig~;
#X obj 202 336 *~, f 4;
#X obj 168 389 +~;
#X text 257 322 Wzmacniacz;
#X text 41 305 składowa stała częstotliwości nośnej, f 14;
#X floatatom 203 230 5 1 10000 0 - - -, f 5;
#X text 111 226 częstotliwość modulatora, f 13;
#X obj 172 637 *~ 0;
#X obj 206 206 mtof;
#X obj 319 197 / 127;
#X text 388 242 I;
#X floatatom 395 121 5 0 0 0 - - -, f 5;
#N canvas 554 20 811 983 ADSR 0;
#X obj 73 71 inlet;
#X obj 272 821 snapshot~;
#X obj 306 794 bng 15 250 50 0 empty empty empty 17 7 0 10 #fcfcfc
#000000 #000000;
#X obj 329 719 loadbang;
#X obj 329 741 bng 15 250 50 0 empty empty empty 17 7 0 10 #fcfcfc
#000000 #000000;
#X obj 330 761 metro 100;
#X floatatom 640 743 5 0 0 0 - - -, f 5;
#X obj 363 466 * 0.9;
#X floatatom 363 496 5 0 0 0 - - -, f 5;
#X obj 283 486 f;
#X floatatom 313 496 5 0 0 0 - - -, f 5;
#X obj 353 426 f;
#X obj 303 386 t b b f f;
#X obj 293 596 vline~;
#X obj 273 856 print 2;
#X obj 237 259 sel 0;
#X obj 589 354 bng 15 250 50 0 empty empty empty 17 7 0 10 #fcfcfc
#000000 #000000;
#X msg 513 796 0 \$1 0;
#X floatatom 378 357 5 0 0 0 - - -, f 5;
#X floatatom 424 487 5 0 0 0 - - -, f 5;
#X floatatom 544 530 5 0 0 0 - - -, f 5;
#X msg 313 556 \$1 \$3 \, \$2 \$4 \$3;
#X obj 323 526 pack f f f f;
#X obj 190 684 outlet~;
#X text 126 758 debug \, podpiac sygnal pod snaphot i print na wyjscie
snapshot - bedzie regularnie printowane, f 25;
#X text 59 47 velocity/ nacisk;
#X obj 302 80 inlet;
#X obj 429 72 inlet;
#X obj 539 67 inlet;
#X obj 663 71 inlet;
#X obj 1022 882 hsl 128 15 10 2000 0 1 empty empty empty -2 -8 0 10
#fcfcfc #000000 #000000 0 1;
#X text 1050 866 Attack;
#X text 288 49 Sustain;
#X text 425 42 Attack;
#X text 539 42 Decay;
#X text 658 47 Release;
#X connect 0 0 15 0;
#X connect 2 0 1 0;
#X connect 3 0 4 0;
#X connect 4 0 5 0;
#X connect 5 0 2 0;
#X connect 6 0 17 0;
#X connect 7 0 8 0;
#X connect 8 0 22 1;
#X connect 9 0 10 0;
#X connect 9 0 22 0;
#X connect 11 0 7 0;
#X connect 12 0 9 0;
#X connect 12 1 11 0;
#X connect 12 2 9 1;
#X connect 12 3 11 1;
#X connect 13 0 23 0;
#X connect 15 0 16 0;
#X connect 15 1 12 0;
#X connect 16 0 6 0;
#X connect 17 0 13 0;
#X connect 18 0 7 1;
#X connect 19 0 22 2;
#X connect 20 0 22 3;
#X connect 21 0 13 0;
#X connect 22 0 21 0;
#X connect 26 0 18 0;
#X connect 27 0 19 0;
#X connect 28 0 20 0;
#X connect 29 0 6 0;
#X restore 322 504 pd ADSR;
#X obj 172 515 *~;
#N canvas 277 0 811 682 ADSR 0;
#X obj 73 71 inlet;
#X obj 272 821 snapshot~;
#X obj 306 794 bng 15 250 50 0 empty empty empty 17 7 0 10 #fcfcfc
#000000 #000000;
#X obj 329 741 bng 15 250 50 0 empty empty empty 17 7 0 10 #fcfcfc
#000000 #000000;
#X obj 330 761 metro 100;
#X floatatom 640 743 5 0 0 0 - - -, f 5;
#X obj 363 466 * 0.9;
#X floatatom 363 496 5 0 0 0 - - -, f 5;
#X obj 283 486 f;
#X floatatom 313 496 5 0 0 0 - - -, f 5;
#X obj 353 426 f;
#X obj 303 386 t b b f f;
#X obj 293 596 vline~;
#X obj 273 856 print 2;
#X obj 237 259 sel 0;
#X obj 589 354 bng 15 250 50 0 empty empty empty 17 7 0 10 #fcfcfc
#000000 #000000;
#X msg 513 796 0 \$1 0;
#X floatatom 378 357 5 0 0 0 - - -, f 5;
#X floatatom 424 487 5 0 0 0 - - -, f 5;
#X floatatom 544 530 5 0 0 0 - - -, f 5;
#X msg 313 556 \$1 \$3 \, \$2 \$4 \$3;
#X obj 323 526 pack f f f f;
#X obj 190 684 outlet~;
#X text 126 758 debug \, podpiac sygnal pod snaphot i print na wyjscie
snapshot - bedzie regularnie printowane, f 25;
#X text 59 47 velocity/ nacisk;
#X obj 302 80 inlet;
#X obj 429 72 inlet;
#X obj 539 67 inlet;
#X obj 663 71 inlet;
#X obj 1022 882 hsl 128 15 10 2000 0 1 empty empty empty -2 -8 0 10
#fcfcfc #000000 #000000 0 1;
#X text 1050 866 Attack;
#X text 288 49 Sustain;
#X text 425 42 Attack;
#X text 539 42 Decay;
#X text 658 47 Release;
#X connect 0 0 14 0;
#X connect 2 0 1 0;
#X connect 3 0 4 0;
#X connect 4 0 2 0;
#X connect 5 0 16 0;
#X connect 6 0 7 0;
#X connect 7 0 21 1;
#X connect 8 0 9 0;
#X connect 8 0 21 0;
#X connect 10 0 6 0;
#X connect 11 0 8 0;
#X connect 11 1 10 0;
#X connect 11 2 8 1;
#X connect 11 3 10 1;
#X connect 12 0 22 0;
#X connect 14 0 15 0;
#X connect 14 1 11 0;
#X connect 15 0 5 0;
#X connect 16 0 12 0;
#X connect 17 0 6 1;
#X connect 18 0 21 2;
#X connect 19 0 21 3;
#X connect 20 0 12 0;
#X connect 21 0 20 0;
#X connect 25 0 17 0;
#X connect 26 0 18 0;
#X connect 27 0 19 0;
#X connect 28 0 5 0;
#X restore 509 232 pd ADSR;
#X obj 396 182 *~;
#X obj 509 257 *~ 32;
#X obj 509 282 -~ 0.25;
#X obj 396 207 +~ 0.25;
#X obj 309 269 *~;
#X obj 267 249 sig~;
#X floatatom 537 72 5 0 0 0 - - -, f 5;
#X obj 446 146 bng 15 250 50 0 empty empty empty 17 7 0 10 #fcfcfc
#000000 #000000;
#X obj 172 663 outlet~;
#X obj 397 42 inlet;
#X text 399 20 volume;
#X text 495 9 modulation;
#X obj 519 32 inlet;
#X obj 589 34 inlet;
#X obj 632 32 inlet;
#X obj 679 37 inlet;
#X obj 726 37 inlet;
#X text 581 8 I_sus;
#X text 632 9 I_at;
#X text 677 10 I_dec;
#X text 727 8 I_rel;
#X obj 784 36 inlet;
#X obj 827 34 inlet;
#X obj 874 39 inlet;
#X obj 921 39 inlet;
#X floatatom 723 361 5 0 0 0 - - -, f 5;
#X floatatom 771 364 5 0 0 0 - - -, f 5;
#X floatatom 818 368 5 0 0 0 - - -, f 5;
#X floatatom 882 373 5 0 0 0 - - -, f 5;
#X text 776 10 A_sus;
#X text 827 11 A_at;
#X text 872 12 A_dec;
#X text 922 10 A_rel;
#X obj 970 41 inlet;
#X text 974 8 on/off;
#X floatatom 942 619 5 0 0 0 - - -, f 5;
#X obj 175 22 inlet;
#X obj 262 20 inlet;
#X connect 0 0 3 0;
#X connect 1 0 16 0;
#X connect 2 0 4 0;
#X connect 3 0 5 0;
#X connect 4 0 5 1;
#X connect 5 0 1 0;
#X connect 8 0 2 0;
#X connect 8 0 23 0;
#X connect 10 0 26 0;
#X connect 11 0 8 0;
#X connect 12 0 15 0;
#X connect 14 0 18 0;
#X connect 15 0 16 1;
#X connect 16 0 10 0;
#X connect 17 0 19 0;
#X connect 18 0 21 0;
#X connect 19 0 20 0;
#X connect 20 0 18 1;
#X connect 21 0 22 1;
#X connect 22 0 4 1;
#X connect 23 0 22 0;
#X connect 24 0 17 0;
#X connect 25 0 24 0;
#X connect 27 0 14 0;
#X connect 30 0 24 0;
#X connect 31 0 17 1;
#X connect 32 0 17 2;
#X connect 33 0 17 3;
#X connect 34 0 17 4;
#X connect 39 0 43 0;
#X connect 40 0 44 0;
#X connect 41 0 45 0;
#X connect 42 0 46 0;
#X connect 43 0 15 1;
#X connect 44 0 15 2;
#X connect 45 0 15 3;
#X connect 46 0 15 4;
#X connect 51 0 53 0;
#X connect 53 0 10 1;
#X connect 54 0 11 0;
#X connect 55 0 12 0;
#X connect 55 0 25 0;
