#N canvas -8 -8 1382 698 10;
#X obj 32 510 dac~;
#X obj 648 535 tgl 17 0 empty empty on/off 17 7 0 10 #fcfcfc #000000
#000000 1 1;
#N canvas 319 8 526 561 control 0;
#X floatatom 65 139 5 0 1 0 - - -, f 5;
#X floatatom 165 141 5 0 0 0 - - -, f 5;
#X obj 58 75 inlet;
#X obj 165 75 inlet;
#X obj 66 165 / 127;
#X floatatom 82 291 5 0 0 0 - - -, f 5;
#X floatatom 183 295 5 0 0 0 - - -, f 5;
#X obj 210 369 outlet;
#X obj 21 367 outlet;
#X text 25 390 volume;
#X text 203 392 modulation;
#X text 50 49 value;
#X text 161 54 channel;
#X obj 65 245 demux 0 1 2 3 4 5 6 7 8 9;
#X connect 0 0 4 0;
#X connect 1 0 13 1;
#X connect 2 0 0 0;
#X connect 3 0 1 0;
#X connect 4 0 13 0;
#X connect 5 0 7 0;
#X connect 6 0 8 0;
#X connect 13 1 5 0;
#X connect 13 7 6 0;
#X restore 402 92 pd control;
#X obj 410 54 ctlin;
#X obj 562 341 hsl 128 15 0 1 0 1 empty empty Sutain -2 -8 0 10 #fcfcfc
#000000 #000000 12700 1;
#X obj 588 372 hsl 128 15 10 2000 0 1 empty empty Attack -2 -8 0 10
#fcfcfc #000000 #000000 2300 1;
#X obj 614 407 hsl 128 15 10 2000 0 1 empty empty Decay -2 -8 0 10
#fcfcfc #000000 #000000 4000 1;
#X obj 641 442 hsl 128 15 10 2000 0 1 empty empty Release -2 -8 0 10
#fcfcfc #000000 #000000 2000 1;
#X obj 507 85 hsl 128 15 0 1 0 1 empty empty Sutain -2 -8 0 10 #fcfcfc
#000000 #000000 12700 1;
#X obj 520 112 hsl 128 15 10 2000 0 1 empty empty Attack -2 -8 0 10
#fcfcfc #000000 #000000 2300 1;
#X obj 534 139 hsl 128 15 10 2000 0 1 empty empty Decay -2 -8 0 10
#fcfcfc #000000 #000000 2700 1;
#X obj 550 164 hsl 128 15 10 2000 0 1 empty empty Release -2 -8 0 10
#fcfcfc #000000 #000000 3400 1;
#X text 551 41 I;
#X text 618 303 Amplituda;
#X obj -8 77 notein;
#X obj 48 123 / 127;
#X floatatom 82 150 4 0 1 0 - - -, f 4;
#X obj 37 331 unpack;
#X floatatom 11 366 5 0 0 0 - - -, f 5;
#X floatatom 52 368 5 0 0 0 - - -, f 5;
#X obj 59 227 pack 0 0 0;
#X obj 58 192 poly 5 1;
#X obj 93 332 unpack;
#X floatatom 92 371 5 0 0 0 - - -, f 5;
#X floatatom 132 370 5 0 0 0 - - -, f 5;
#X obj 178 332 unpack;
#X floatatom 175 371 5 0 0 0 - - -, f 5;
#X floatatom 214 372 5 0 0 0 - - -, f 5;
#X obj 253 335 unpack;
#X floatatom 257 371 5 0 0 0 - - -, f 5;
#X floatatom 292 371 5 0 0 0 - - -, f 5;
#X obj 318 332 unpack;
#X floatatom 334 372 5 0 0 0 - - -, f 5;
#X floatatom 375 375 5 0 0 0 - - -, f 5;
#X obj 64 271 route 1 2 3 4 5;
#N canvas 0 0 1350 699 5-FMgen 0;
#X obj 844 438 FM_gen;
#X obj 744 328 inlet;
#X obj 787 326 inlet;
#X obj 828 323 inlet;
#X obj 870 323 inlet;
#X obj 939 323 inlet;
#X obj 982 322 inlet;
#X obj 1024 319 inlet;
#X obj 1065 319 inlet;
#X obj 1141 315 inlet;
#X obj 643 331 inlet;
#X obj 686 330 inlet;
#X obj 485 332 inlet;
#X obj 528 331 inlet;
#X obj 383 333 inlet;
#X obj 426 332 inlet;
#X obj 282 333 inlet;
#X obj 325 332 inlet;
#X obj 155 337 inlet;
#X obj 198 336 inlet;
#X obj 33 335 inlet;
#X obj 76 334 inlet;
#X obj 584 560 outlet~;
#X obj 658 441 FM_gen;
#X obj 465 442 FM_gen;
#X obj 280 439 FM_gen;
#X obj 86 434 FM_gen;
#X connect 0 0 22 0;
#X connect 1 0 0 4;
#X connect 1 0 23 4;
#X connect 1 0 24 4;
#X connect 1 0 25 4;
#X connect 1 0 26 4;
#X connect 2 0 0 5;
#X connect 2 0 23 5;
#X connect 2 0 24 5;
#X connect 2 0 25 5;
#X connect 2 0 26 5;
#X connect 3 0 0 6;
#X connect 3 0 23 6;
#X connect 3 0 24 6;
#X connect 3 0 25 6;
#X connect 3 0 26 6;
#X connect 4 0 0 7;
#X connect 4 0 23 7;
#X connect 4 0 24 7;
#X connect 4 0 25 7;
#X connect 4 0 26 7;
#X connect 5 0 0 8;
#X connect 5 0 23 8;
#X connect 5 0 24 8;
#X connect 5 0 25 8;
#X connect 5 0 26 8;
#X connect 6 0 0 9;
#X connect 6 0 23 9;
#X connect 6 0 24 9;
#X connect 6 0 25 9;
#X connect 6 0 26 9;
#X connect 7 0 0 10;
#X connect 7 0 23 10;
#X connect 7 0 24 10;
#X connect 7 0 25 10;
#X connect 7 0 26 10;
#X connect 8 0 0 11;
#X connect 8 0 23 11;
#X connect 8 0 24 11;
#X connect 8 0 25 11;
#X connect 8 0 26 11;
#X connect 9 0 0 12;
#X connect 9 0 23 12;
#X connect 9 0 24 12;
#X connect 9 0 25 12;
#X connect 9 0 26 12;
#X connect 10 0 0 2;
#X connect 10 0 23 2;
#X connect 10 0 24 2;
#X connect 10 0 25 2;
#X connect 10 0 26 2;
#X connect 11 0 0 3;
#X connect 11 0 23 3;
#X connect 11 0 24 3;
#X connect 11 0 25 3;
#X connect 11 0 26 3;
#X connect 12 0 0 0;
#X connect 13 0 0 1;
#X connect 14 0 23 0;
#X connect 15 0 23 1;
#X connect 16 0 24 0;
#X connect 17 0 24 1;
#X connect 18 0 25 0;
#X connect 19 0 25 1;
#X connect 20 0 26 0;
#X connect 21 0 26 1;
#X connect 23 0 22 0;
#X connect 24 0 22 0;
#X connect 25 0 22 0;
#X connect 26 0 22 0;
#X restore 36 438 pd 5-FMgen;
#X connect 1 0 35 20;
#X connect 2 0 35 10;
#X connect 2 1 35 11;
#X connect 3 0 2 0;
#X connect 3 1 2 1;
#X connect 4 0 35 16;
#X connect 5 0 35 17;
#X connect 6 0 35 18;
#X connect 7 0 35 19;
#X connect 8 0 35 12;
#X connect 9 0 35 13;
#X connect 10 0 35 14;
#X connect 11 0 35 15;
#X connect 14 0 21 0;
#X connect 14 1 15 0;
#X connect 15 0 16 0;
#X connect 16 0 21 1;
#X connect 17 0 18 0;
#X connect 17 1 19 0;
#X connect 18 0 35 0;
#X connect 19 0 35 1;
#X connect 20 0 34 0;
#X connect 21 0 20 0;
#X connect 21 1 20 1;
#X connect 21 2 20 2;
#X connect 22 0 23 0;
#X connect 22 1 24 0;
#X connect 23 0 35 2;
#X connect 24 0 35 3;
#X connect 25 0 26 0;
#X connect 25 1 27 0;
#X connect 26 0 35 4;
#X connect 27 0 35 5;
#X connect 28 0 29 0;
#X connect 28 1 30 0;
#X connect 29 0 35 6;
#X connect 30 0 35 7;
#X connect 31 0 32 0;
#X connect 31 1 33 0;
#X connect 32 0 35 8;
#X connect 33 0 35 9;
#X connect 34 0 17 0;
#X connect 34 1 22 0;
#X connect 34 2 25 0;
#X connect 34 3 28 0;
#X connect 34 4 31 0;
#X connect 35 0 0 0;
#X connect 35 0 0 1;
