#N canvas 676 0 697 689 10;
#X obj 957 639 dac~;
#X floatatom 923 280 5 0 10000 0 - - -, f 5;
#X obj 950 370 osc~;
#X obj 984 230 osc~;
#X obj 927 304 sig~;
#X obj 985 280 *~, f 4;
#X obj 951 333 +~;
#X text 1040 266 Wzmacniacz;
#X text 824 249 składowa stała częstotliwości nośnej, f 14;
#X floatatom 986 174 5 1 10000 0 - - -, f 5;
#X text 894 170 częstotliwość modulatora, f 13;
#X obj 955 581 *~ 0;
#X obj 1024 544 tgl 15 0 empty empty empty 17 7 0 10 #fcfcfc #000000
#000000 1 1;
#X obj 1032 39 notein;
#X obj 989 150 mtof;
#X obj 1102 141 / 127;
#X text 1171 186 I;
#N canvas 319 8 526 561 control 0;
#X floatatom 65 139 5 0 1 0 - - -, f 5;
#X floatatom 165 141 5 0 0 0 - - -, f 5;
#X obj 58 75 inlet;
#X obj 165 75 inlet;
#X obj 66 165 / 127;
#X floatatom 82 291 5 0 0 0 - - -, f 5;
#X floatatom 183 295 5 0 0 0 - - -, f 5;
#X obj 210 369 outlet;
#X obj 21 367 outlet;
#X text 25 390 volume;
#X text 203 392 modulation;
#X text 50 49 value;
#X text 161 54 channel;
#X obj 65 245 demux 0 1 2 3 4 5 6 7 8 9;
#X connect 0 0 4 0;
#X connect 1 0 13 1;
#X connect 2 0 0 0;
#X connect 3 0 1 0;
#X connect 4 0 13 0;
#X connect 5 0 7 0;
#X connect 6 0 8 0;
#X connect 13 1 5 0;
#X connect 13 7 6 0;
#X restore 1205 37 pd control;
#X obj 1221 -1 ctlin;
#X floatatom 1178 65 5 0 0 0 - - -, f 5;
#N canvas 554 20 811 983 ADSR 0;
#X obj 73 71 inlet;
#X obj 272 821 snapshot~;
#X obj 306 794 bng 15 250 50 0 empty empty empty 17 7 0 10 #fcfcfc
#000000 #000000;
#X obj 329 719 loadbang;
#X obj 329 741 bng 15 250 50 0 empty empty empty 17 7 0 10 #fcfcfc
#000000 #000000;
#X obj 330 761 metro 100;
#X floatatom 640 743 5 0 0 0 - - -, f 5;
#X obj 363 466 * 0.9;
#X floatatom 363 496 5 0 0 0 - - -, f 5;
#X obj 283 486 f;
#X floatatom 313 496 5 0 0 0 - - -, f 5;
#X obj 353 426 f;
#X obj 303 386 t b b f f;
#X obj 293 596 vline~;
#X obj 273 856 print 2;
#X obj 237 259 sel 0;
#X obj 589 354 bng 15 250 50 0 empty empty empty 17 7 0 10 #fcfcfc
#000000 #000000;
#X msg 513 796 0 \$1 0;
#X floatatom 378 357 5 0 0 0 - - -, f 5;
#X floatatom 424 487 5 0 0 0 - - -, f 5;
#X floatatom 544 530 5 0 0 0 - - -, f 5;
#X msg 313 556 \$1 \$3 \, \$2 \$4 \$3;
#X obj 323 526 pack f f f f;
#X obj 190 684 outlet~;
#X text 126 758 debug \, podpiac sygnal pod snaphot i print na wyjscie
snapshot - bedzie regularnie printowane, f 25;
#X text 59 47 velocity/ nacisk;
#X obj 302 80 inlet;
#X obj 429 72 inlet;
#X obj 539 67 inlet;
#X obj 663 71 inlet;
#X obj 1022 882 hsl 128 15 10 2000 0 1 empty empty empty -2 -8 0 10
#fcfcfc #000000 #000000 0 1;
#X text 1050 866 Attack;
#X text 288 49 Sustain;
#X text 425 42 Attack;
#X text 539 42 Decay;
#X text 658 47 Release;
#X connect 0 0 15 0;
#X connect 2 0 1 0;
#X connect 3 0 4 0;
#X connect 4 0 5 0;
#X connect 5 0 2 0;
#X connect 6 0 17 0;
#X connect 7 0 8 0;
#X connect 8 0 22 1;
#X connect 9 0 10 0;
#X connect 9 0 22 0;
#X connect 11 0 7 0;
#X connect 12 0 9 0;
#X connect 12 1 11 0;
#X connect 12 2 9 1;
#X connect 12 3 11 1;
#X connect 13 0 23 0;
#X connect 15 0 16 0;
#X connect 15 1 12 0;
#X connect 16 0 6 0;
#X connect 17 0 13 0;
#X connect 18 0 7 1;
#X connect 19 0 22 2;
#X connect 20 0 22 3;
#X connect 21 0 13 0;
#X connect 22 0 21 0;
#X connect 26 0 18 0;
#X connect 27 0 19 0;
#X connect 28 0 20 0;
#X connect 29 0 6 0;
#X restore 1105 448 pd ADSR;
#X obj 1118 310 hsl 128 15 0 1 0 1 empty empty Sutain -2 -8 0 10 #fcfcfc
#000000 #000000 12700 1;
#X obj 1131 337 hsl 128 15 10 2000 0 1 empty empty Attack -2 -8 0 10
#fcfcfc #000000 #000000 5400 1;
#X obj 1145 364 hsl 128 15 10 2000 0 1 empty empty Decay -2 -8 0 10
#fcfcfc #000000 #000000 2600 1;
#X obj 1161 389 hsl 128 15 10 2000 0 1 empty empty Release -2 -8 0
10 #fcfcfc #000000 #000000 2500 1;
#X obj 955 459 *~;
#N canvas 277 0 811 682 ADSR 0;
#X obj 73 71 inlet;
#X obj 272 821 snapshot~;
#X obj 306 794 bng 15 250 50 0 empty empty empty 17 7 0 10 #fcfcfc
#000000 #000000;
#X obj 329 741 bng 15 250 50 0 empty empty empty 17 7 0 10 #fcfcfc
#000000 #000000;
#X obj 330 761 metro 100;
#X floatatom 640 743 5 0 0 0 - - -, f 5;
#X obj 363 466 * 0.9;
#X floatatom 363 496 5 0 0 0 - - -, f 5;
#X obj 283 486 f;
#X floatatom 313 496 5 0 0 0 - - -, f 5;
#X obj 353 426 f;
#X obj 303 386 t b b f f;
#X obj 293 596 vline~;
#X obj 273 856 print 2;
#X obj 237 259 sel 0;
#X obj 589 354 bng 15 250 50 0 empty empty empty 17 7 0 10 #fcfcfc
#000000 #000000;
#X msg 513 796 0 \$1 0;
#X floatatom 378 357 5 0 0 0 - - -, f 5;
#X floatatom 424 487 5 0 0 0 - - -, f 5;
#X floatatom 544 530 5 0 0 0 - - -, f 5;
#X msg 313 556 \$1 \$3 \, \$2 \$4 \$3;
#X obj 323 526 pack f f f f;
#X obj 190 684 outlet~;
#X text 126 758 debug \, podpiac sygnal pod snaphot i print na wyjscie
snapshot - bedzie regularnie printowane, f 25;
#X text 59 47 velocity/ nacisk;
#X obj 302 80 inlet;
#X obj 429 72 inlet;
#X obj 539 67 inlet;
#X obj 663 71 inlet;
#X obj 1022 882 hsl 128 15 10 2000 0 1 empty empty empty -2 -8 0 10
#fcfcfc #000000 #000000 0 1;
#X text 1050 866 Attack;
#X text 288 49 Sustain;
#X text 425 42 Attack;
#X text 539 42 Decay;
#X text 658 47 Release;
#X connect 0 0 14 0;
#X connect 2 0 1 0;
#X connect 3 0 4 0;
#X connect 4 0 2 0;
#X connect 5 0 16 0;
#X connect 6 0 7 0;
#X connect 7 0 21 1;
#X connect 8 0 9 0;
#X connect 8 0 21 0;
#X connect 10 0 6 0;
#X connect 11 0 8 0;
#X connect 11 1 10 0;
#X connect 11 2 8 1;
#X connect 11 3 10 1;
#X connect 12 0 22 0;
#X connect 14 0 15 0;
#X connect 14 1 11 0;
#X connect 15 0 5 0;
#X connect 16 0 12 0;
#X connect 17 0 6 1;
#X connect 18 0 21 2;
#X connect 19 0 21 3;
#X connect 20 0 12 0;
#X connect 21 0 20 0;
#X connect 25 0 17 0;
#X connect 26 0 18 0;
#X connect 27 0 19 0;
#X connect 28 0 5 0;
#X restore 1292 176 pd ADSR;
#X obj 1305 37 hsl 128 15 0 1 0 1 empty empty Sutain -2 -8 0 10 #fcfcfc
#000000 #000000 1500 1;
#X obj 1318 64 hsl 128 15 10 2000 0 1 empty empty Attack -2 -8 0 10
#fcfcfc #000000 #000000 400 1;
#X obj 1332 91 hsl 128 15 10 2000 0 1 empty empty Decay -2 -8 0 10
#fcfcfc #000000 #000000 1300 1;
#X obj 1348 116 hsl 128 15 10 2000 0 1 empty empty Release -2 -8 0
10 #fcfcfc #000000 #000000 2500 1;
#X obj 1179 126 *~;
#X obj 1292 201 *~ 32;
#X obj 1292 226 -~ 0.25;
#X obj 1179 151 +~ 0.25;
#X obj 1092 213 *~;
#X obj 1050 193 sig~;
#X floatatom 1265 109 5 0 0 0 - - -, f 5;
#X obj 1229 90 bng 15 250 50 0 empty empty empty 17 7 0 10 #fcfcfc
#000000 #000000;
#X obj 1293 527 FM_gen;
#X connect 1 0 4 0;
#X connect 2 0 25 0;
#X connect 3 0 5 0;
#X connect 4 0 6 0;
#X connect 5 0 6 1;
#X connect 6 0 2 0;
#X connect 9 0 3 0;
#X connect 9 0 36 0;
#X connect 11 0 0 1;
#X connect 11 0 0 0;
#X connect 12 0 11 1;
#X connect 13 0 14 0;
#X connect 13 1 15 0;
#X connect 13 1 38 0;
#X connect 14 0 9 0;
#X connect 15 0 20 0;
#X connect 17 0 19 0;
#X connect 17 0 39 0;
#X connect 17 1 37 0;
#X connect 17 1 39 1;
#X connect 18 0 17 0;
#X connect 18 1 17 1;
#X connect 19 0 31 0;
#X connect 20 0 25 1;
#X connect 21 0 20 1;
#X connect 22 0 20 2;
#X connect 23 0 20 3;
#X connect 24 0 20 4;
#X connect 25 0 11 0;
#X connect 26 0 32 0;
#X connect 27 0 26 1;
#X connect 28 0 26 2;
#X connect 29 0 26 3;
#X connect 30 0 26 4;
#X connect 31 0 34 0;
#X connect 32 0 33 0;
#X connect 33 0 31 1;
#X connect 34 0 35 1;
#X connect 35 0 5 1;
#X connect 36 0 35 0;
#X connect 37 0 26 0;
#X connect 38 0 37 0;
