#N canvas 473 479 893 543 10;
#X obj 93 78 inlet;
#X floatatom 660 750 5 0 0 0 - - -, f 5;
#X obj 383 473 * 0.9;
#X floatatom 383 503 5 0 0 0 - - -, f 5;
#X obj 303 493 f;
#X floatatom 333 503 5 0 0 0 - - -, f 5;
#X obj 373 433 f;
#X obj 323 393 t b b f f;
#X obj 313 603 vline~;
#X obj 257 266 sel 0;
#X obj 609 361 bng 15 250 50 0 empty empty empty 17 7 0 10 #fcfcfc
#000000 #000000;
#X msg 533 803 0 \$1 0;
#X floatatom 398 364 5 0 0 0 - - -, f 5;
#X floatatom 444 494 5 0 0 0 - - -, f 5;
#X floatatom 564 537 5 0 0 0 - - -, f 5;
#X msg 333 563 \$1 \$3 \, \$2 \$4 \$3;
#X obj 343 533 pack f f f f;
#X obj 210 691 outlet~;
#X text 79 54 velocity/ nacisk;
#X obj 322 87 inlet;
#X obj 449 79 inlet;
#X obj 559 74 inlet;
#X obj 683 78 inlet;
#X obj 1042 889 hsl 128 15 10 2000 0 1 empty empty empty -2 -8 0 10
#fcfcfc #000000 #000000 0 1;
#X text 1070 873 Attack;
#X text 308 56 Sustain;
#X text 445 49 Attack;
#X text 559 49 Decay;
#X text 678 54 Release;
#X connect 0 0 9 0;
#X connect 1 0 11 0;
#X connect 2 0 3 0;
#X connect 3 0 16 1;
#X connect 4 0 5 0;
#X connect 4 0 16 0;
#X connect 6 0 2 0;
#X connect 7 0 4 0;
#X connect 7 1 6 0;
#X connect 7 2 4 1;
#X connect 7 3 6 1;
#X connect 8 0 17 0;
#X connect 9 0 10 0;
#X connect 9 1 7 0;
#X connect 10 0 1 0;
#X connect 11 0 8 0;
#X connect 12 0 2 1;
#X connect 13 0 16 2;
#X connect 14 0 16 3;
#X connect 15 0 8 0;
#X connect 16 0 15 0;
#X connect 19 0 12 0;
#X connect 20 0 13 0;
#X connect 21 0 14 0;
#X connect 22 0 1 0;
