#N canvas 930 67 676 806 10;
#X obj 154 672 *~ 0;
#X obj 147 230 osc~;
#X obj 155 21 inlet;
#X obj 703 623 inlet;
#X obj 152 710 outlet~;
#X obj 497 59 inlet~;
#X obj 150 315 *~;
#X obj 397 60 inlet~;
#X obj 152 485 *~;
#X text 401 37 tremollo;
#X text 492 38 obwiednia;
#X obj 149 125 sig~;
#X obj 153 171 *~;
#X obj 302 60 inlet~;
#X text 300 33 vibrato;
#X text 212 22 volume;
#X obj 216 51 inlet;
#X obj 152 580 *~;
#X floatatom 211 89 5 0 0 0 - - -, f 5;
#X obj 152 81 mtof;
#X floatatom 151 105 5 0 0 0 - - -, f 5;
#X floatatom 154 55 5 0 0 0 - - -, f 5;
#X connect 0 0 4 0;
#X connect 1 0 6 0;
#X connect 2 0 21 0;
#X connect 3 0 0 1;
#X connect 5 0 8 1;
#X connect 6 0 8 0;
#X connect 7 0 6 1;
#X connect 8 0 17 0;
#X connect 11 0 12 0;
#X connect 12 0 1 0;
#X connect 13 0 12 1;
#X connect 16 0 18 0;
#X connect 17 0 0 0;
#X connect 18 0 17 1;
#X connect 19 0 20 0;
#X connect 20 0 11 0;
#X connect 21 0 19 0;
