#N canvas 0 0 1366 682 10;
#X obj 868 646 tgl 15 0 empty empty empty 17 7 0 10 #fcfcfc #000000
#000000 0 1;
#X obj 85 81 notein;
#X obj 141 127 / 127;
#X floatatom 161 155 4 0 1 0 - - -, f 4;
#X obj 578 422 hsl 128 15 0 1 0 1 empty empty Sutain -2 -8 0 10 #fcfcfc
#000000 #000000 12700 1;
#X obj 591 449 hsl 128 15 10 2000 0 1 empty empty Attack -2 -8 0 10
#fcfcfc #000000 #000000 0 1;
#X obj 605 476 hsl 128 15 10 2000 0 1 empty empty Decay -2 -8 0 10
#fcfcfc #000000 #000000 800 1;
#X obj 621 501 hsl 128 15 10 2000 0 1 empty empty Release -2 -8 0 10
#fcfcfc #000000 #000000 1100 1;
#X obj 928 408 vsl 15 128 0 1 0 1 empty empty empty 0 -9 0 10 #fcfcfc
#000000 #000000 0 1;
#X obj 896 526 tgl 15 0 empty empty empty 17 7 0 10 #fcfcfc #000000
#000000 0 1;
#N canvas 1002 267 780 701 tremollo 0;
#X obj 117 295 osc~;
#X floatatom 188 202 5 0 1 0 - - -, f 5;
#X obj 217 365 +~;
#X obj 218 292 sig~;
#X floatatom 167 295 5 0 0 0 - - -, f 5;
#X floatatom 399 282 5 0 0 0 - - -, f 5;
#X obj 357 305 sig~;
#X obj 215 483 outlet~;
#X obj 137 335 *~;
#X obj 187 255 expr 0.5-(0.5*(1 - $f1));
#X obj 357 255 expr 0.5+((1 - $f1)*0.5);
#X text 408 225 stała;
#X text 107 225 zmienna;
#X obj 193 65 inlet;
#X obj 27 64 inlet;
#X text 186 36 % efektu \; 0-1;
#X text 45 33 on/off;
#X floatatom 20 203 5 0 0 0 - - -, f 5;
#X obj 75 307 1;
#X obj 75 364 sig~;
#X obj 62 407 mux~ 0 1;
#X obj 441 463 snapshot~;
#X obj 475 436 bng 15 250 50 0 empty empty empty 17 7 0 10 #fcfcfc
#000000 #000000;
#X obj 498 361 loadbang;
#X obj 498 383 bng 15 250 50 0 empty empty empty 17 7 0 10 #fcfcfc
#000000 #000000;
#X obj 499 403 metro 100;
#X obj 442 498 print 2;
#X obj 45 228 loadbang;
#X obj 45 250 bng 15 250 50 0 empty empty empty 17 7 0 10 #fcfcfc #000000
#000000;
#X floatatom 76 338 5 0 0 0 - - -, f 5;
#X obj 113 269 6;
#X text 426 10 tremollo - modulacja amplitudy sygnału;
#X connect 0 0 8 0;
#X connect 1 0 9 0;
#X connect 1 0 10 0;
#X connect 2 0 20 1;
#X connect 3 0 8 1;
#X connect 6 0 2 1;
#X connect 8 0 2 0;
#X connect 9 0 3 0;
#X connect 9 0 4 0;
#X connect 10 0 5 0;
#X connect 10 0 6 0;
#X connect 13 0 1 0;
#X connect 14 0 17 0;
#X connect 17 0 20 0;
#X connect 18 0 29 0;
#X connect 19 0 20 0;
#X connect 20 0 7 0;
#X connect 22 0 21 0;
#X connect 23 0 24 0;
#X connect 24 0 25 0;
#X connect 25 0 22 0;
#X connect 27 0 28 0;
#X connect 28 0 18 0;
#X connect 28 0 30 0;
#X connect 29 0 19 0;
#X connect 30 0 0 0;
#X restore 885 554 pd tremollo;
#N canvas 0 0 1366 682 vibrato 0;
#X obj 175 292 osc~;
#X floatatom 246 215 5 0 1 0 - - -, f 5;
#X obj 275 362 +~;
#X obj 230 292 sig~;
#X obj 321 307 sig~;
#X obj 228 633 outlet~;
#X obj 195 332 *~;
#X text 340 233 stała;
#X text 191 263 zmienna;
#X obj 251 62 inlet;
#X obj 27 64 inlet;
#X text 29 36 on/off;
#X floatatom 20 203 5 0 0 0 - - -, f 5;
#X obj 75 307 1;
#X obj 75 364 sig~;
#X obj 760 609 snapshot~;
#X obj 794 582 bng 15 250 50 0 empty empty empty 17 7 0 10 #fcfcfc
#000000 #000000;
#X obj 817 507 loadbang;
#X obj 817 529 bng 15 250 50 0 empty empty empty 17 7 0 10 #fcfcfc
#000000 #000000;
#X obj 818 549 metro 100;
#X obj 770 655 print 2;
#X obj 45 228 loadbang;
#X obj 45 250 bng 15 250 50 0 empty empty empty 17 7 0 10 #fcfcfc #000000
#000000;
#X floatatom 76 338 5 0 0 0 - - -, f 5;
#X text 375 7 vibrato - modulacja częstotliwości sygnału;
#X obj 161 67 inlet;
#X floatatom 162 230 5 0 0 0 - - -, f 5;
#X text 151 28 częstotliwość 0 - 30 Hz, f 13;
#X text 243 30 % efektu \; 0-1, f 21;
#X obj 321 257 1;
#X obj 280 232 bng 15 250 50 0 empty empty empty 17 7 0 10 #fcfcfc
#000000 #000000;
#X floatatom 322 281 5 0 0 0 - - -, f 5;
#X obj 500 308 osc~;
#X floatatom 571 177 5 0 1 0 - - -, f 5;
#X obj 607 384 +~;
#X obj 555 308 sig~;
#X obj 646 323 sig~;
#X obj 520 348 *~;
#X text 665 249 stała;
#X text 516 279 zmienna;
#X floatatom 485 214 5 0 0 0 - - -, f 5;
#X obj 605 248 bng 15 250 50 0 empty empty empty 17 7 0 10 #fcfcfc
#000000 #000000;
#X floatatom 647 297 5 0 0 0 - - -, f 5;
#X floatatom 475 115 5 0 0 0 - - -, f 5;
#X obj 646 273 1.25;
#X obj 537 151 expr $f1 * 0.75;
#X text 704 269 oscyluje od 0.5 do 2 ale z punktem śrdokowym w 1.25
\, a nie w 1 tak jak powinno jeżeli byłaby to skala logarytmiczna
\;  \; TODO - czy da się zrobić w faktycznej logarytmicznej?
, f 31;
#X obj 32 438 mux~ 0 1 2;
#X connect 0 0 6 0;
#X connect 1 0 3 0;
#X connect 1 0 30 0;
#X connect 2 0 47 1;
#X connect 3 0 6 1;
#X connect 4 0 2 1;
#X connect 6 0 2 0;
#X connect 9 0 1 0;
#X connect 9 0 43 0;
#X connect 10 0 12 0;
#X connect 12 0 47 0;
#X connect 13 0 23 0;
#X connect 14 0 47 0;
#X connect 16 0 15 0;
#X connect 17 0 18 0;
#X connect 18 0 19 0;
#X connect 19 0 16 0;
#X connect 21 0 22 0;
#X connect 22 0 13 0;
#X connect 23 0 14 0;
#X connect 25 0 26 0;
#X connect 25 0 40 0;
#X connect 26 0 0 0;
#X connect 29 0 31 0;
#X connect 30 0 29 0;
#X connect 31 0 4 0;
#X connect 32 0 37 0;
#X connect 33 0 35 0;
#X connect 33 0 41 0;
#X connect 34 0 47 2;
#X connect 35 0 37 1;
#X connect 36 0 34 1;
#X connect 37 0 34 0;
#X connect 40 0 32 0;
#X connect 41 0 44 0;
#X connect 42 0 36 0;
#X connect 43 0 45 0;
#X connect 44 0 42 0;
#X connect 45 0 33 0;
#X connect 47 0 5 0;
#X restore 815 552 pd vibrato;
#X obj 866 397 vsl 15 128 0 1 0 1 empty empty empty 0 -9 0 10 #fcfcfc
#000000 #000000 0 1;
#X obj 842 405 vsl 15 128 0 30 0 1 empty empty empty 0 -9 0 10 #fcfcfc
#000000 #000000 1733 1;
#X obj 813 378 vradio 15 0 0 3 empty empty off/lin/log 0 -8 0 10 #fcfcfc
#000000 #000000 0;
#X obj 806 164 ctlin;
#X obj 778 403 vsl 15 128 0 1 0 1 empty empty Volume 0 -9 0 10 #fcfcfc
#000000 #000000 9300 1;
#N canvas 1328 301 542 544 control 0;
#X floatatom 65 139 5 0 1 0 - - -, f 5;
#X floatatom 165 141 5 0 0 0 - - -, f 5;
#X obj 58 75 inlet;
#X obj 165 75 inlet;
#X obj 66 165 / 127;
#X floatatom 82 291 5 0 0 0 - - -, f 5;
#X floatatom 183 295 5 0 0 0 - - -, f 5;
#X obj 210 369 outlet;
#X obj 21 367 outlet;
#X text 25 390 volume;
#X text 203 392 modulation;
#X text 50 49 value;
#X text 161 54 channel;
#X obj 65 245 demux 0 1 2 3 4 5 6 7 8 9;
#X connect 0 0 4 0;
#X connect 1 0 13 1;
#X connect 2 0 0 0;
#X connect 3 0 1 0;
#X connect 4 0 13 0;
#X connect 5 0 7 0;
#X connect 6 0 8 0;
#X connect 13 1 5 0;
#X connect 13 7 6 0;
#X restore 796 245 pd control;
#N canvas 538 252 434 317 mix_out 0;
#X obj 94 132 dac~;
#X obj 19 28 inlet~;
#X obj 83 30 inlet~;
#X obj 137 29 inlet~;
#X obj 186 26 inlet~;
#X obj 239 26 inlet~;
#X connect 1 0 0 0;
#X connect 1 0 0 1;
#X connect 2 0 0 0;
#X connect 2 0 0 1;
#X connect 3 0 0 0;
#X connect 3 0 0 1;
#X connect 4 0 0 0;
#X connect 4 0 0 1;
#X connect 5 0 0 0;
#X connect 5 0 0 1;
#X restore 269 755 pd mix_out;
#X obj 130 335 unpack;
#X floatatom 104 370 5 0 0 0 - - -, f 5;
#X floatatom 145 372 5 0 0 0 - - -, f 5;
#X obj 152 231 pack 0 0 0;
#N canvas 368 463 679 361 5-ADSR 0;
#X floatatom 35 37 5 0 0 0 - - -, f 5;
#X obj 19 267 ADSR;
#X obj 396 23 inlet;
#X obj 443 24 inlet;
#X obj 487 21 inlet;
#X obj 526 23 inlet;
#X floatatom 395 56 5 0 0 0 - - -, f 5;
#X floatatom 446 57 5 0 0 0 - - -, f 5;
#X floatatom 490 64 5 0 0 0 - - -, f 5;
#X floatatom 530 62 5 0 0 0 - - -, f 5;
#X obj 34 8 inlet;
#X obj 95 267 ADSR;
#X obj 175 267 ADSR;
#X obj 255 270 ADSR;
#X obj 327 272 ADSR;
#X floatatom 81 38 5 0 0 0 - - -, f 5;
#X obj 81 7 inlet;
#X floatatom 125 39 5 0 0 0 - - -, f 5;
#X obj 125 7 inlet;
#X floatatom 171 34 5 0 0 0 - - -, f 5;
#X obj 171 6 inlet;
#X floatatom 212 33 5 0 0 0 - - -, f 5;
#X obj 214 7 inlet;
#X obj 20 310 outlet~;
#X obj 100 310 outlet~;
#X obj 174 310 outlet~;
#X obj 254 309 outlet~;
#X obj 328 309 outlet~;
#X connect 0 0 1 0;
#X connect 1 0 23 0;
#X connect 2 0 6 0;
#X connect 3 0 7 0;
#X connect 4 0 8 0;
#X connect 5 0 9 0;
#X connect 6 0 1 1;
#X connect 6 0 11 1;
#X connect 6 0 12 1;
#X connect 6 0 13 1;
#X connect 6 0 14 1;
#X connect 7 0 1 2;
#X connect 7 0 11 2;
#X connect 7 0 12 2;
#X connect 7 0 13 2;
#X connect 7 0 14 2;
#X connect 8 0 1 3;
#X connect 8 0 11 3;
#X connect 8 0 12 3;
#X connect 8 0 13 3;
#X connect 8 0 14 3;
#X connect 9 0 1 4;
#X connect 9 0 11 4;
#X connect 9 0 12 4;
#X connect 9 0 13 4;
#X connect 9 0 14 4;
#X connect 10 0 0 0;
#X connect 11 0 24 0;
#X connect 12 0 25 0;
#X connect 13 0 26 0;
#X connect 14 0 27 0;
#X connect 15 0 11 0;
#X connect 16 0 15 0;
#X connect 17 0 12 0;
#X connect 18 0 17 0;
#X connect 19 0 13 0;
#X connect 20 0 19 0;
#X connect 21 0 14 0;
#X connect 22 0 21 0;
#X restore 228 559 pd 5-ADSR;
#X obj 151 196 poly 5 1;
#N canvas 80 145 934 423 5-generator 0;
#X obj 28 66 inlet;
#X obj 84 66 inlet~;
#X obj 27 189 generator;
#X obj 145 67 inlet;
#X obj 201 67 inlet~;
#X obj 144 190 generator;
#X obj 253 67 inlet;
#X obj 309 67 inlet~;
#X obj 252 190 generator;
#X obj 384 66 inlet;
#X obj 440 66 inlet~;
#X obj 382 194 generator;
#X obj 513 68 inlet;
#X obj 569 68 inlet~;
#X obj 512 191 generator;
#X obj 637 64 inlet;
#X text 633 39 volume;
#X obj 697 65 inlet~;
#X obj 757 67 inlet~;
#X text 759 44 tremolo;
#X text 693 41 vibrato;
#X obj 828 67 inlet;
#X text 827 40 on/off;
#X obj 27 218 outlet~;
#X obj 144 215 outlet~;
#X obj 252 215 outlet~;
#X obj 382 219 outlet~;
#X obj 512 216 outlet~;
#X connect 0 0 2 0;
#X connect 1 0 2 4;
#X connect 2 0 23 0;
#X connect 3 0 5 0;
#X connect 4 0 5 4;
#X connect 5 0 24 0;
#X connect 6 0 8 0;
#X connect 7 0 8 4;
#X connect 8 0 25 0;
#X connect 9 0 11 0;
#X connect 10 0 11 4;
#X connect 11 0 26 0;
#X connect 12 0 14 0;
#X connect 13 0 14 4;
#X connect 14 0 27 0;
#X connect 15 0 2 1;
#X connect 15 0 14 1;
#X connect 15 0 5 1;
#X connect 15 0 8 1;
#X connect 15 0 11 1;
#X connect 17 0 2 2;
#X connect 17 0 14 2;
#X connect 17 0 5 2;
#X connect 17 0 8 2;
#X connect 17 0 11 2;
#X connect 18 0 2 3;
#X connect 18 0 14 3;
#X connect 18 0 5 3;
#X connect 18 0 11 3;
#X connect 18 0 8 3;
#X connect 21 0 2 5;
#X connect 21 0 14 5;
#X connect 21 0 5 5;
#X connect 21 0 11 5;
#X connect 21 0 8 5;
#X restore 210 700 pd 5-generator;
#X obj 186 336 unpack;
#X floatatom 185 375 5 0 0 0 - - -, f 5;
#X floatatom 225 374 5 0 0 0 - - -, f 5;
#X obj 271 336 unpack;
#X floatatom 268 375 5 0 0 0 - - -, f 5;
#X floatatom 307 376 5 0 0 0 - - -, f 5;
#X obj 346 339 unpack;
#X floatatom 350 375 5 0 0 0 - - -, f 5;
#X floatatom 385 375 5 0 0 0 - - -, f 5;
#X obj 411 336 unpack;
#X floatatom 427 376 5 0 0 0 - - -, f 5;
#X floatatom 468 379 5 0 0 0 - - -, f 5;
#X obj 157 275 route 1 2 3 4 5;
#X obj 500 90 demux 10 11 12;
#X floatatom 490 50 5 0 0 0 - - -, f 5;
#X floatatom 570 50 5 0 0 0 - - -, f 5;
#X floatatom 500 120 5 0 0 0 - - -, f 5;
#X floatatom 540 120 5 0 0 0 - - -, f 5;
#X floatatom 580 120 5 0 0 0 - - -, f 5;
#X connect 0 0 25 13;
#X connect 1 0 24 0;
#X connect 1 1 2 0;
#X connect 2 0 3 0;
#X connect 3 0 24 1;
#X connect 4 0 23 5;
#X connect 5 0 23 6;
#X connect 6 0 23 7;
#X connect 7 0 23 8;
#X connect 8 0 10 1;
#X connect 9 0 10 0;
#X connect 10 0 25 12;
#X connect 11 0 25 11;
#X connect 12 0 11 2;
#X connect 13 0 11 1;
#X connect 14 0 11 0;
#X connect 15 0 17 0;
#X connect 15 1 17 1;
#X connect 16 0 25 10;
#X connect 17 0 16 0;
#X connect 17 1 12 0;
#X connect 17 1 8 0;
#X connect 19 0 20 0;
#X connect 19 1 21 0;
#X connect 20 0 25 0;
#X connect 21 0 23 0;
#X connect 22 0 38 0;
#X connect 23 0 25 1;
#X connect 23 1 25 3;
#X connect 23 2 25 5;
#X connect 23 3 25 7;
#X connect 23 4 25 9;
#X connect 24 0 22 0;
#X connect 24 1 22 1;
#X connect 24 2 22 2;
#X connect 25 0 18 0;
#X connect 25 1 18 1;
#X connect 25 2 18 2;
#X connect 25 3 18 3;
#X connect 25 4 18 4;
#X connect 26 0 27 0;
#X connect 26 1 28 0;
#X connect 27 0 25 2;
#X connect 28 0 23 1;
#X connect 29 0 30 0;
#X connect 29 1 31 0;
#X connect 30 0 25 4;
#X connect 31 0 23 2;
#X connect 32 0 33 0;
#X connect 32 1 34 0;
#X connect 33 0 25 6;
#X connect 34 0 23 3;
#X connect 35 0 36 0;
#X connect 35 1 37 0;
#X connect 36 0 25 8;
#X connect 37 0 23 4;
#X connect 38 0 19 0;
#X connect 38 1 26 0;
#X connect 38 2 29 0;
#X connect 38 3 32 0;
#X connect 38 4 35 0;
#X connect 39 0 42 0;
#X connect 39 1 43 0;
#X connect 39 2 44 0;
#X connect 40 0 39 0;
#X connect 41 0 39 1;
