#N canvas 651 192 450 300 10;
#N canvas 521 138 295 375 generator 1;
#X obj 22 192 *~ 0;
#X obj 22 112 osc~;
#X obj 20 60 inlet;
#X obj 165 62 inlet;
#X obj 20 230 outlet~;
#X obj 22 152 *~;
#X obj 86 54 inlet;
#X obj 64 128 line~;
#X msg 72 92 \$1 20;
#X connect 0 0 4 0;
#X connect 1 0 5 0;
#X connect 2 0 1 0;
#X connect 3 0 0 1;
#X connect 5 0 0 0;
#X connect 6 0 8 0;
#X connect 7 0 5 1;
#X connect 8 0 7 0;
#X restore 40 180 pd generator;
#X floatatom 40 155 5 0 0 0 - - -, f 5;
#X obj 200 140 tgl 15 0 empty empty empty 17 7 0 10 #fcfcfc #000000
#000000 1 1;
#X obj 40 230 dac~;
#X obj 43 59 notein;
#X obj 44 114 mtof;
#X obj 94 124 / 127;
#X connect 0 0 3 0;
#X connect 1 0 0 0;
#X connect 2 0 0 2;
#X connect 4 0 5 0;
#X connect 4 1 6 0;
#X connect 5 0 1 0;
#X connect 6 0 0 1;
