#N canvas 1001 34 450 300 10;
#N canvas 953 30 279 392 generator 1;
#X obj 22 192 *~ 0;
#X obj 22 152 *~ 0;
#X obj 22 112 osc~;
#X obj 20 60 inlet;
#X obj 80 110 inlet;
#X obj 120 150 inlet;
#X obj 20 230 outlet~;
#X connect 0 0 6 0;
#X connect 1 0 0 0;
#X connect 2 0 1 0;
#X connect 3 0 2 0;
#X connect 4 0 1 1;
#X connect 5 0 0 1;
#X restore 40 180 pd generator;
#X floatatom 40 155 5 0 0 0 - - -, f 5;
#X obj 200 140 tgl 15 0 empty empty empty 17 7 0 10 #fcfcfc #000000
#000000 0 1;
#X obj 40 230 dac~;
#X floatatom 77 155 5 0 0 0 - - -, f 5;
#X obj 43 59 notein;
#X obj 44 114 mtof;
#X obj 97 123 / 127;
#X connect 0 0 3 0;
#X connect 1 0 0 0;
#X connect 2 0 0 2;
#X connect 4 0 0 1;
#X connect 5 0 6 0;
#X connect 5 1 7 0;
#X connect 6 0 1 0;
#X connect 7 0 4 0;
