#N canvas 857 140 434 317 10;
#N canvas 327 0 612 682 generator 0;
#X obj 25 527 *~ 0;
#X obj 22 112 osc~;
#X obj 20 60 inlet;
#X obj 549 506 inlet;
#X obj 23 565 outlet~;
#X obj 23 278 *~;
#X obj 67 13 inlet;
#X obj 45 244 *~ 0;
#X obj 236 86 int;
#X obj 234 62 + 0.9999;
#X obj 138 67 - 0.1;
#X obj 61 177 vline~;
#X obj 61 103 pack f f;
#X obj 52 390 snapshot~;
#X obj 54 413 print;
#X obj 86 363 bng 15 250 50 0 empty empty empty 17 7 0 10 #fcfcfc #000000
#000000;
#X obj 109 288 loadbang;
#X obj 109 310 bng 15 250 50 0 empty empty empty 17 7 0 10 #fcfcfc
#000000 #000000;
#X obj 110 330 metro 100;
#X text 200 111 1 - key down \; 0 - key up;
#X obj 26 470 *~;
#X obj 99 457 *~ 0;
#X obj 362 190 expr 1 - $f1;
#X floatatom 249 310 5 0 0 0 - - -, f 5;
#X obj 228 277 hsl 128 15 10 10000 0 0 empty empty empty -2 -8 0 10
#fcfcfc #000000 #000000 3400 1;
#X obj 226 242 loadbang;
#X obj 85 65 bng 15 250 50 0 empty empty empty 17 7 0 10 #fcfcfc #000000
#000000;
#X floatatom 238 165 5 0 0 0 - - -, f 5;
#X msg 67 144 \$1 1000 \, \$2 1000 1100;
#X obj 338 406 vline~;
#X obj 217 345 pack f f;
#X floatatom 369 250 5 0 0 0 - - -, f 5;
#X msg 257 370 \$1 0 \, 0 \$2 0;
#X obj 328 92 f;
#X connect 0 0 4 0;
#X connect 1 0 5 0;
#X connect 2 0 1 0;
#X connect 3 0 0 1;
#X connect 5 0 20 0;
#X connect 6 0 9 0;
#X connect 6 0 10 0;
#X connect 6 0 12 0;
#X connect 6 0 26 0;
#X connect 7 0 5 1;
#X connect 7 0 13 0;
#X connect 8 0 27 0;
#X connect 9 0 8 0;
#X connect 10 0 12 1;
#X connect 10 0 30 0;
#X connect 11 0 7 0;
#X connect 12 0 28 0;
#X connect 13 0 14 0;
#X connect 15 0 13 0;
#X connect 16 0 17 0;
#X connect 17 0 18 0;
#X connect 18 0 15 0;
#X connect 20 0 0 0;
#X connect 21 0 20 1;
#X connect 21 0 13 0;
#X connect 22 0 31 0;
#X connect 23 0 30 1;
#X connect 24 0 23 0;
#X connect 25 0 24 0;
#X connect 26 0 24 0;
#X connect 27 0 7 1;
#X connect 27 0 22 0;
#X connect 28 0 11 0;
#X connect 29 0 21 0;
#X connect 30 0 32 0;
#X connect 31 0 21 1;
#X connect 32 0 29 0;
#X restore 40 180 pd generator;
#X floatatom 40 155 5 0 0 0 - - -, f 5;
#X obj 200 140 tgl 15 0 empty empty empty 17 7 0 10 #fcfcfc #000000
#000000 0 1;
#X obj 40 230 dac~;
#X obj 43 59 notein;
#X obj 44 114 mtof;
#X obj 94 124 / 127;
#X floatatom 91 153 5 0 1 0 - - -, f 5;
#X connect 0 0 3 0;
#X connect 1 0 0 0;
#X connect 2 0 0 2;
#X connect 4 0 5 0;
#X connect 4 1 6 0;
#X connect 7 0 0 1;
