#N canvas 1109 36 434 342 10;
#N canvas 115 71 612 905 generator 1;
#X obj 12 762 *~ 0;
#X obj 12 222 osc~;
#X obj 10 170 inlet;
#X obj 540 740 inlet;
#X obj 10 800 outlet~;
#X obj 10 513 *~;
#X obj 60 70 inlet;
#X obj 39 625 snapshot~;
#X obj 73 598 bng 15 250 50 0 empty empty empty 17 7 0 10 #fcfcfc #000000
#000000;
#X obj 96 523 loadbang;
#X obj 96 545 bng 15 250 50 0 empty empty empty 17 7 0 10 #fcfcfc #000000
#000000;
#X obj 97 565 metro 100;
#X floatatom 290 550 5 0 0 0 - - -, f 5;
#X obj 290 510 hsl 128 15 10 10000 0 0 empty empty empty -2 -8 0 10
#fcfcfc #000000 #000000 0 1;
#X obj 130 270 * 0.9;
#X floatatom 130 300 5 0 0 0 - - -, f 5;
#X obj 50 290 f;
#X floatatom 80 300 5 0 0 0 - - -, f 5;
#X obj 120 230 f;
#X obj 70 190 t b b f f;
#X obj 60 400 vline~;
#X obj 40 660 print 2;
#X obj 60 130 sel 0;
#X obj 260 260 bng 15 250 50 0 empty empty empty 17 7 0 10 #fcfcfc
#000000 #000000;
#X msg 280 600 0 \$1 0;
#X text 320 490 Release;
#X obj 160 120 hsl 128 15 0 1 0 0 empty empty empty -2 -8 0 10 #fcfcfc
#000000 #000000 0 1;
#X floatatom 210 170 5 0 0 0 - - -, f 5;
#X text 210 100 Sustain;
#X obj 332 206 hsl 128 15 10 10000 0 0 empty empty empty -2 -8 0 10
#fcfcfc #000000 #000000 0 1;
#X text 360 190 Attack;
#X floatatom 330 250 5 0 0 0 - - -, f 5;
#X obj 332 316 hsl 128 15 10 10000 0 0 empty empty empty -2 -8 0 10
#fcfcfc #000000 #000000 0 1;
#X floatatom 330 360 5 0 0 0 - - -, f 5;
#X text 360 300 Decay;
#X msg 80 360 \$1 \$3 \, \$2 \$4 \$3;
#X obj 90 330 pack f f f f;
#X connect 0 0 4 0;
#X connect 1 0 5 0;
#X connect 2 0 1 0;
#X connect 3 0 0 1;
#X connect 5 0 0 0;
#X connect 6 0 22 0;
#X connect 7 0 21 0;
#X connect 8 0 7 0;
#X connect 9 0 10 0;
#X connect 10 0 11 0;
#X connect 11 0 8 0;
#X connect 12 0 24 0;
#X connect 13 0 12 0;
#X connect 14 0 15 0;
#X connect 15 0 36 1;
#X connect 16 0 17 0;
#X connect 16 0 36 0;
#X connect 18 0 14 0;
#X connect 19 0 16 0;
#X connect 19 1 18 0;
#X connect 19 2 16 1;
#X connect 19 3 18 1;
#X connect 20 0 5 1;
#X connect 20 0 7 0;
#X connect 22 0 23 0;
#X connect 22 1 19 0;
#X connect 23 0 13 0;
#X connect 24 0 20 0;
#X connect 26 0 27 0;
#X connect 27 0 14 1;
#X connect 29 0 31 0;
#X connect 31 0 36 2;
#X connect 32 0 33 0;
#X connect 33 0 36 3;
#X connect 35 0 20 0;
#X connect 36 0 35 0;
#X restore 40 180 pd generator;
#X floatatom 40 155 5 0 0 0 - - -, f 5;
#X obj 200 140 tgl 15 0 empty empty empty 17 7 0 10 #fcfcfc #000000
#000000 0 1;
#X obj 40 230 dac~;
#X obj 43 59 notein;
#X obj 44 114 mtof;
#X obj 94 124 / 127;
#X floatatom 91 153 5 0 1 0 - - -, f 5;
#X connect 0 0 3 0;
#X connect 0 0 3 1;
#X connect 1 0 0 0;
#X connect 2 0 0 2;
#X connect 4 0 5 0;
#X connect 4 1 6 0;
#X connect 5 0 1 0;
#X connect 6 0 7 0;
#X connect 7 0 0 1;
