#N canvas 1276 49 418 521 10;
#N canvas 752 154 612 905 generator 0;
#X obj 12 762 *~ 0;
#X obj 5 320 osc~;
#X obj 13 111 inlet;
#X obj 540 740 inlet;
#X obj 10 800 outlet~;
#X obj 339 186 inlet~;
#X obj 8 405 *~;
#X floatatom 13 141 5 0 0 0 - - -, f 5;
#X obj 239 187 inlet~;
#X obj 10 575 *~;
#X text 243 164 tremollo;
#X text 334 165 obwiednia;
#X obj 8 177 sig~;
#X connect 0 0 4 0;
#X connect 1 0 6 0;
#X connect 2 0 7 0;
#X connect 3 0 0 1;
#X connect 5 0 9 1;
#X connect 6 0 9 0;
#X connect 7 0 12 0;
#X connect 8 0 6 1;
#X connect 9 0 0 0;
#X connect 12 0 1 0;
#X restore 75 371 pd generator;
#X floatatom 57 79 5 0 0 0 - - -, f 5;
#X obj 185 391 tgl 15 0 empty empty empty 17 7 0 10 #fcfcfc #000000
#000000 0 1;
#X obj 75 411 dac~;
#X obj 147 7 notein;
#X obj 57 40 mtof;
#X obj 163 30 / 127;
#X floatatom 222 93 4 0 1 0 - - -, f 4;
#N canvas 554 20 811 983 ADSR 0;
#X obj 73 71 inlet;
#X obj 272 821 snapshot~;
#X obj 306 794 bng 15 250 50 0 empty empty empty 17 7 0 10 #fcfcfc
#000000 #000000;
#X obj 329 719 loadbang;
#X obj 329 741 bng 15 250 50 0 empty empty empty 17 7 0 10 #fcfcfc
#000000 #000000;
#X obj 330 761 metro 100;
#X floatatom 640 743 5 0 0 0 - - -, f 5;
#X obj 363 466 * 0.9;
#X floatatom 363 496 5 0 0 0 - - -, f 5;
#X obj 283 486 f;
#X floatatom 313 496 5 0 0 0 - - -, f 5;
#X obj 353 426 f;
#X obj 303 386 t b b f f;
#X obj 293 596 vline~;
#X obj 273 856 print 2;
#X obj 237 259 sel 0;
#X obj 589 354 bng 15 250 50 0 empty empty empty 17 7 0 10 #fcfcfc
#000000 #000000;
#X msg 513 796 0 \$1 0;
#X floatatom 378 357 5 0 0 0 - - -, f 5;
#X floatatom 424 487 5 0 0 0 - - -, f 5;
#X floatatom 544 530 5 0 0 0 - - -, f 5;
#X msg 313 556 \$1 \$3 \, \$2 \$4 \$3;
#X obj 323 526 pack f f f f;
#X obj 190 684 outlet~;
#X text 126 758 debug \, podpiac sygnal pod snaphot i print na wyjscie
snapshot - bedzie regularnie printowane, f 25;
#X text 59 47 velocity/ nacisk;
#X obj 302 80 inlet;
#X obj 429 72 inlet;
#X obj 539 67 inlet;
#X obj 663 71 inlet;
#X obj 1022 882 hsl 128 15 10 2000 0 1 empty empty empty -2 -8 0 10
#fcfcfc #000000 #000000 0 1;
#X text 1050 866 Attack;
#X text 288 49 Sustain;
#X text 425 42 Attack;
#X text 539 42 Decay;
#X text 658 47 Release;
#X connect 0 0 15 0;
#X connect 2 0 1 0;
#X connect 3 0 4 0;
#X connect 4 0 5 0;
#X connect 5 0 2 0;
#X connect 6 0 17 0;
#X connect 7 0 8 0;
#X connect 8 0 22 1;
#X connect 9 0 10 0;
#X connect 9 0 22 0;
#X connect 11 0 7 0;
#X connect 12 0 9 0;
#X connect 12 1 11 0;
#X connect 12 2 9 1;
#X connect 12 3 11 1;
#X connect 13 0 23 0;
#X connect 15 0 16 0;
#X connect 15 1 12 0;
#X connect 16 0 6 0;
#X connect 17 0 13 0;
#X connect 18 0 7 1;
#X connect 19 0 22 2;
#X connect 20 0 22 3;
#X connect 21 0 13 0;
#X connect 22 0 21 0;
#X connect 26 0 18 0;
#X connect 27 0 19 0;
#X connect 28 0 20 0;
#X connect 29 0 6 0;
#X restore 221 336 pd ADSR;
#X obj 234 203 hsl 128 15 0 1 0 1 empty empty Sutain -2 -8 0 10 #fcfcfc
#000000 #000000 4300 1;
#X obj 247 230 hsl 128 15 10 2000 0 1 empty empty Attack -2 -8 0 10
#fcfcfc #000000 #000000 5200 1;
#X obj 261 257 hsl 128 15 10 2000 0 1 empty empty Decay -2 -8 0 10
#fcfcfc #000000 #000000 2300 1;
#X obj 277 282 hsl 128 15 10 2000 0 1 empty empty Release -2 -8 0 10
#fcfcfc #000000 #000000 2700 1;
#X obj 142 171 vsl 15 128 0 1 0 1 empty empty empty 0 -9 0 10 #fcfcfc
#000000 #000000 10500 1;
#X obj 110 289 tgl 15 0 empty empty empty 17 7 0 10 #fcfcfc #000000
#000000 0 1;
#N canvas 476 336 780 701 tremollo 0;
#X obj 117 295 osc~;
#X floatatom 188 202 5 0 1 0 - - -, f 5;
#X obj 217 365 +~;
#X obj 218 292 sig~;
#X floatatom 167 295 5 0 0 0 - - -, f 5;
#X floatatom 399 282 5 0 0 0 - - -, f 5;
#X obj 357 305 sig~;
#X obj 215 483 outlet~;
#X obj 137 335 *~;
#X obj 187 255 expr 0.5-(0.5*(1 - $f1));
#X obj 357 255 expr 0.5+((1 - $f1)*0.5);
#X text 408 225 stała;
#X text 107 225 zmienna;
#X obj 193 65 inlet;
#X obj 27 64 inlet;
#X text 186 36 % efektu \; 0-1;
#X text 45 33 on/off;
#X floatatom 20 203 5 0 0 0 - - -, f 5;
#X obj 75 307 1;
#X obj 75 364 sig~;
#X obj 62 407 mux~ 0 1;
#X obj 441 463 snapshot~;
#X obj 475 436 bng 15 250 50 0 empty empty empty 17 7 0 10 #fcfcfc
#000000 #000000;
#X obj 498 361 loadbang;
#X obj 498 383 bng 15 250 50 0 empty empty empty 17 7 0 10 #fcfcfc
#000000 #000000;
#X obj 499 403 metro 100;
#X obj 442 498 print 2;
#X obj 45 228 loadbang;
#X obj 45 250 bng 15 250 50 0 empty empty empty 17 7 0 10 #fcfcfc #000000
#000000;
#X floatatom 76 338 5 0 0 0 - - -, f 5;
#X obj 113 269 6;
#X text 426 10 tremollo - modulacja amplitudy sygnału;
#X connect 0 0 8 0;
#X connect 1 0 9 0;
#X connect 1 0 10 0;
#X connect 2 0 20 1;
#X connect 3 0 8 1;
#X connect 6 0 2 1;
#X connect 8 0 2 0;
#X connect 9 0 3 0;
#X connect 9 0 4 0;
#X connect 10 0 5 0;
#X connect 10 0 6 0;
#X connect 13 0 1 0;
#X connect 14 0 17 0;
#X connect 17 0 20 0;
#X connect 18 0 29 0;
#X connect 19 0 20 0;
#X connect 20 0 7 0;
#X connect 22 0 21 0;
#X connect 23 0 24 0;
#X connect 24 0 25 0;
#X connect 25 0 22 0;
#X connect 27 0 28 0;
#X connect 28 0 18 0;
#X connect 28 0 30 0;
#X connect 29 0 19 0;
#X connect 30 0 0 0;
#X restore 99 317 pd tremollo;
#X connect 0 0 3 0;
#X connect 0 0 3 1;
#X connect 1 0 0 0;
#X connect 2 0 0 3;
#X connect 4 0 5 0;
#X connect 4 1 6 0;
#X connect 5 0 1 0;
#X connect 6 0 7 0;
#X connect 7 0 8 0;
#X connect 8 0 0 2;
#X connect 9 0 8 1;
#X connect 10 0 8 2;
#X connect 11 0 8 3;
#X connect 12 0 8 4;
#X connect 13 0 15 1;
#X connect 14 0 15 0;
#X connect 15 0 0 1;
