#N canvas 786 155 463 626 10;
#N canvas 1175 167 612 905 generator 0;
#X obj 12 762 *~ 0;
#X obj 5 320 osc~;
#X obj 13 111 inlet;
#X obj 561 713 inlet;
#X obj 10 800 outlet~;
#X obj 355 149 inlet~;
#X obj 8 405 *~;
#X floatatom 13 141 5 0 0 0 - - -, f 5;
#X obj 255 150 inlet~;
#X obj 10 575 *~;
#X text 259 127 tremollo;
#X text 350 128 obwiednia;
#X obj 8 177 sig~;
#X obj 11 261 *~;
#X obj 160 150 inlet~;
#X text 158 123 vibrato;
#X text 70 112 volume;
#X obj 74 141 inlet;
#X obj 10 670 *~;
#X floatatom 69 179 5 0 0 0 - - -, f 5;
#X connect 0 0 4 0;
#X connect 1 0 6 0;
#X connect 2 0 7 0;
#X connect 3 0 0 1;
#X connect 5 0 9 1;
#X connect 6 0 9 0;
#X connect 7 0 12 0;
#X connect 8 0 6 1;
#X connect 9 0 18 0;
#X connect 12 0 13 0;
#X connect 13 0 1 0;
#X connect 14 0 13 1;
#X connect 17 0 19 0;
#X connect 18 0 0 0;
#X connect 19 0 18 1;
#X restore 78 520 pd generator;
#X floatatom 12 499 5 0 0 0 - - -, f 5;
#X obj 188 540 tgl 15 0 empty empty empty 17 7 0 10 #fcfcfc #000000
#000000 0 1;
#X obj 78 560 dac~;
#X obj 147 7 notein;
#X obj 20 39 mtof;
#X obj 225 28 / 127;
#X floatatom 222 93 4 0 1 0 - - -, f 4;
#N canvas 554 20 811 983 ADSR 0;
#X obj 73 71 inlet;
#X obj 272 821 snapshot~;
#X obj 306 794 bng 15 250 50 0 empty empty empty 17 7 0 10 #fcfcfc
#000000 #000000;
#X obj 329 719 loadbang;
#X obj 329 741 bng 15 250 50 0 empty empty empty 17 7 0 10 #fcfcfc
#000000 #000000;
#X obj 330 761 metro 100;
#X floatatom 640 743 5 0 0 0 - - -, f 5;
#X obj 363 466 * 0.9;
#X floatatom 363 496 5 0 0 0 - - -, f 5;
#X obj 283 486 f;
#X floatatom 313 496 5 0 0 0 - - -, f 5;
#X obj 353 426 f;
#X obj 303 386 t b b f f;
#X obj 293 596 vline~;
#X obj 273 856 print 2;
#X obj 237 259 sel 0;
#X obj 589 354 bng 15 250 50 0 empty empty empty 17 7 0 10 #fcfcfc
#000000 #000000;
#X msg 513 796 0 \$1 0;
#X floatatom 378 357 5 0 0 0 - - -, f 5;
#X floatatom 424 487 5 0 0 0 - - -, f 5;
#X floatatom 544 530 5 0 0 0 - - -, f 5;
#X msg 313 556 \$1 \$3 \, \$2 \$4 \$3;
#X obj 323 526 pack f f f f;
#X obj 190 684 outlet~;
#X text 126 758 debug \, podpiac sygnal pod snaphot i print na wyjscie
snapshot - bedzie regularnie printowane, f 25;
#X text 59 47 velocity/ nacisk;
#X obj 302 80 inlet;
#X obj 429 72 inlet;
#X obj 539 67 inlet;
#X obj 663 71 inlet;
#X obj 1022 882 hsl 128 15 10 2000 0 1 empty empty empty -2 -8 0 10
#fcfcfc #000000 #000000 0 1;
#X text 1050 866 Attack;
#X text 288 49 Sustain;
#X text 425 42 Attack;
#X text 539 42 Decay;
#X text 658 47 Release;
#X connect 0 0 15 0;
#X connect 2 0 1 0;
#X connect 3 0 4 0;
#X connect 4 0 5 0;
#X connect 5 0 2 0;
#X connect 6 0 17 0;
#X connect 7 0 8 0;
#X connect 8 0 22 1;
#X connect 9 0 10 0;
#X connect 9 0 22 0;
#X connect 11 0 7 0;
#X connect 12 0 9 0;
#X connect 12 1 11 0;
#X connect 12 2 9 1;
#X connect 12 3 11 1;
#X connect 13 0 23 0;
#X connect 15 0 16 0;
#X connect 15 1 12 0;
#X connect 16 0 6 0;
#X connect 17 0 13 0;
#X connect 18 0 7 1;
#X connect 19 0 22 2;
#X connect 20 0 22 3;
#X connect 21 0 13 0;
#X connect 22 0 21 0;
#X connect 26 0 18 0;
#X connect 27 0 19 0;
#X connect 28 0 20 0;
#X connect 29 0 6 0;
#X restore 224 485 pd ADSR;
#X obj 237 352 hsl 128 15 0 1 0 1 empty empty Sutain -2 -8 0 10 #fcfcfc
#000000 #000000 4300 1;
#X obj 250 379 hsl 128 15 10 2000 0 1 empty empty Attack -2 -8 0 10
#fcfcfc #000000 #000000 5200 1;
#X obj 264 406 hsl 128 15 10 2000 0 1 empty empty Decay -2 -8 0 10
#fcfcfc #000000 #000000 2300 1;
#X obj 280 431 hsl 128 15 10 2000 0 1 empty empty Release -2 -8 0 10
#fcfcfc #000000 #000000 2700 1;
#X obj 193 305 vsl 15 128 0 1 0 1 empty empty empty 0 -9 0 10 #fcfcfc
#000000 #000000 8400 1;
#X obj 161 423 tgl 15 0 empty empty empty 17 7 0 10 #fcfcfc #000000
#000000 0 0.503937;
#N canvas 476 336 780 701 tremollo 0;
#X obj 117 295 osc~;
#X floatatom 188 202 5 0 1 0 - - -, f 5;
#X obj 217 365 +~;
#X obj 218 292 sig~;
#X floatatom 167 295 5 0 0 0 - - -, f 5;
#X floatatom 399 282 5 0 0 0 - - -, f 5;
#X obj 357 305 sig~;
#X obj 215 483 outlet~;
#X obj 137 335 *~;
#X obj 187 255 expr 0.5-(0.5*(1 - $f1));
#X obj 357 255 expr 0.5+((1 - $f1)*0.5);
#X text 408 225 stała;
#X text 107 225 zmienna;
#X obj 193 65 inlet;
#X obj 27 64 inlet;
#X text 186 36 % efektu \; 0-1;
#X text 45 33 on/off;
#X floatatom 20 203 5 0 0 0 - - -, f 5;
#X obj 75 307 1;
#X obj 75 364 sig~;
#X obj 62 407 mux~ 0 1;
#X obj 441 463 snapshot~;
#X obj 475 436 bng 15 250 50 0 empty empty empty 17 7 0 10 #fcfcfc
#000000 #000000;
#X obj 498 361 loadbang;
#X obj 498 383 bng 15 250 50 0 empty empty empty 17 7 0 10 #fcfcfc
#000000 #000000;
#X obj 499 403 metro 100;
#X obj 442 498 print 2;
#X obj 45 228 loadbang;
#X obj 45 250 bng 15 250 50 0 empty empty empty 17 7 0 10 #fcfcfc #000000
#000000;
#X floatatom 76 338 5 0 0 0 - - -, f 5;
#X obj 113 269 6;
#X text 426 10 tremollo - modulacja amplitudy sygnału;
#X connect 0 0 8 0;
#X connect 1 0 9 0;
#X connect 1 0 10 0;
#X connect 2 0 20 1;
#X connect 3 0 8 1;
#X connect 6 0 2 1;
#X connect 8 0 2 0;
#X connect 9 0 3 0;
#X connect 9 0 4 0;
#X connect 10 0 5 0;
#X connect 10 0 6 0;
#X connect 13 0 1 0;
#X connect 14 0 17 0;
#X connect 17 0 20 0;
#X connect 18 0 29 0;
#X connect 19 0 20 0;
#X connect 20 0 7 0;
#X connect 22 0 21 0;
#X connect 23 0 24 0;
#X connect 24 0 25 0;
#X connect 25 0 22 0;
#X connect 27 0 28 0;
#X connect 28 0 18 0;
#X connect 28 0 30 0;
#X connect 29 0 19 0;
#X connect 30 0 0 0;
#X restore 150 451 pd tremollo;
#N canvas 355 95 924 701 vibrato 0;
#X obj 175 292 osc~;
#X floatatom 246 215 5 0 1 0 - - -, f 5;
#X obj 275 362 +~;
#X obj 230 292 sig~;
#X obj 321 307 sig~;
#X obj 228 633 outlet~;
#X obj 195 332 *~;
#X text 340 233 stała;
#X text 191 263 zmienna;
#X obj 251 62 inlet;
#X obj 27 64 inlet;
#X text 29 36 on/off;
#X floatatom 20 203 5 0 0 0 - - -, f 5;
#X obj 75 307 1;
#X obj 75 364 sig~;
#X obj 760 609 snapshot~;
#X obj 794 582 bng 15 250 50 0 empty empty empty 17 7 0 10 #fcfcfc
#000000 #000000;
#X obj 817 507 loadbang;
#X obj 817 529 bng 15 250 50 0 empty empty empty 17 7 0 10 #fcfcfc
#000000 #000000;
#X obj 818 549 metro 100;
#X obj 770 655 print 2;
#X obj 45 228 loadbang;
#X obj 45 250 bng 15 250 50 0 empty empty empty 17 7 0 10 #fcfcfc #000000
#000000;
#X floatatom 76 338 5 0 0 0 - - -, f 5;
#X text 375 7 vibrato - modulacja częstotliwości sygnału;
#X obj 161 67 inlet;
#X floatatom 162 230 5 0 0 0 - - -, f 5;
#X text 151 28 częstotliwość 0 - 30 Hz, f 13;
#X text 243 30 % efektu \; 0-1, f 21;
#X obj 321 257 1;
#X obj 280 232 bng 15 250 50 0 empty empty empty 17 7 0 10 #fcfcfc
#000000 #000000;
#X floatatom 322 281 5 0 0 0 - - -, f 5;
#X obj 500 308 osc~;
#X floatatom 571 177 5 0 1 0 - - -, f 5;
#X obj 607 384 +~;
#X obj 555 308 sig~;
#X obj 646 323 sig~;
#X obj 520 348 *~;
#X text 665 249 stała;
#X text 516 279 zmienna;
#X floatatom 485 214 5 0 0 0 - - -, f 5;
#X obj 605 248 bng 15 250 50 0 empty empty empty 17 7 0 10 #fcfcfc
#000000 #000000;
#X floatatom 647 297 5 0 0 0 - - -, f 5;
#X floatatom 475 115 5 0 0 0 - - -, f 5;
#X obj 646 273 1.25;
#X obj 537 151 expr $f1 * 0.75;
#X text 704 269 oscyluje od 0.5 do 2 ale z punktem śrdokowym w 1.25
\, a nie w 1 tak jak powinno jeżeli byłaby to skala logarytmiczna
\;  \; TODO - czy da się zrobić w faktycznej logarytmicznej?
, f 31;
#X obj 32 438 mux~ 0 1 2;
#X connect 0 0 6 0;
#X connect 1 0 3 0;
#X connect 1 0 30 0;
#X connect 2 0 47 1;
#X connect 3 0 6 1;
#X connect 4 0 2 1;
#X connect 6 0 2 0;
#X connect 9 0 1 0;
#X connect 9 0 43 0;
#X connect 10 0 12 0;
#X connect 12 0 47 0;
#X connect 13 0 23 0;
#X connect 14 0 47 0;
#X connect 16 0 15 0;
#X connect 17 0 18 0;
#X connect 18 0 19 0;
#X connect 19 0 16 0;
#X connect 21 0 22 0;
#X connect 22 0 13 0;
#X connect 23 0 14 0;
#X connect 25 0 26 0;
#X connect 25 0 40 0;
#X connect 26 0 0 0;
#X connect 29 0 31 0;
#X connect 30 0 29 0;
#X connect 31 0 4 0;
#X connect 32 0 37 0;
#X connect 33 0 35 0;
#X connect 33 0 41 0;
#X connect 34 0 47 2;
#X connect 35 0 37 1;
#X connect 36 0 34 1;
#X connect 37 0 34 0;
#X connect 40 0 32 0;
#X connect 41 0 44 0;
#X connect 42 0 36 0;
#X connect 43 0 45 0;
#X connect 44 0 42 0;
#X connect 45 0 33 0;
#X connect 47 0 5 0;
#X restore 80 449 pd vibrato;
#X obj 131 294 vsl 15 128 0 1 0 1 empty empty empty 0 -9 0 10 #fcfcfc
#000000 #000000 8400 1;
#X obj 107 302 vsl 15 128 0 30 0 1 empty empty empty 0 -9 0 10 #fcfcfc
#000000 #000000 33 1;
#X obj 83 277 vradio 15 0 0 3 empty empty off/lin/log 0 -8 0 10 #fcfcfc
#000000 #000000 0;
#X obj 71 61 ctlin;
#X obj 36 299 vsl 15 128 0 1 0 1 empty empty Volume 0 -9 0 10 #fcfcfc
#000000 #000000 9000 1;
#N canvas 1328 301 542 544 control 0;
#X floatatom 65 139 5 0 1 0 - - -, f 5;
#X floatatom 165 141 5 0 0 0 - - -, f 5;
#X obj 58 75 inlet;
#X obj 165 75 inlet;
#X obj 66 165 / 127;
#X floatatom 82 291 5 0 0 0 - - -, f 5;
#X floatatom 183 295 5 0 0 0 - - -, f 5;
#X obj 210 369 outlet;
#X obj 21 367 outlet;
#X text 25 390 volume;
#X text 203 392 modulation;
#X text 50 49 value;
#X text 161 54 channel;
#X obj 65 245 demux 0 1 2 3 4 5 6 7 8 9;
#X connect 0 0 4 0;
#X connect 1 0 13 1;
#X connect 2 0 0 0;
#X connect 3 0 1 0;
#X connect 4 0 13 0;
#X connect 5 0 7 0;
#X connect 6 0 8 0;
#X connect 13 1 5 0;
#X connect 13 7 6 0;
#X restore 61 142 pd control;
#X floatatom 131 107 5 0 0 0 - - -, f 5;
#X connect 0 0 3 0;
#X connect 0 0 3 1;
#X connect 1 0 0 0;
#X connect 2 0 0 5;
#X connect 4 0 5 0;
#X connect 4 1 6 0;
#X connect 5 0 1 0;
#X connect 6 0 7 0;
#X connect 7 0 8 0;
#X connect 8 0 0 4;
#X connect 9 0 8 1;
#X connect 10 0 8 2;
#X connect 11 0 8 3;
#X connect 12 0 8 4;
#X connect 13 0 15 1;
#X connect 14 0 15 0;
#X connect 15 0 0 3;
#X connect 16 0 0 2;
#X connect 17 0 16 2;
#X connect 18 0 16 1;
#X connect 19 0 16 0;
#X connect 20 0 22 0;
#X connect 20 1 22 1;
#X connect 20 2 23 0;
#X connect 21 0 0 1;
#X connect 22 0 21 0;
#X connect 22 1 17 0;
#X connect 22 1 13 0;
