#N canvas 345 333 1575 645 10;
#N canvas 0 0 450 300 (subpatch) 0;
#X array array1 165372 float 6 black black;
#X coords 0 0.5 165372 -0.5 2000 140 1;
#X restore -6 7 graph;
#X msg 209 203 read slip_intro.wav array1;
#X obj 209 228 soundfiler;
#X floatatom 209 253 13 0 0 0 - - -, f 13;
#X obj 207 163 bng 15 250 50 1 empty empty load\ and\ play 17 7 0 10
#fcfcfc #000000 #000000;
#X msg 226 473 0 \, \$1 \$2;
#X obj 226 448 pack 1 2;
#X obj 226 506 line~;
#X obj 226 616 *~ 0.7;
#X obj 226 641 dac~;
#X obj 288 303 / 44.1;
#X obj 226 591 tabread4~ array1;
#X obj 399 167 vsl 15 128 0.25 4 0 1 empty empty replay\ speed\ (%)
0 -9 0 10 #fcfcfc #000000 #000000 2540 1;
#X floatatom 400 322 5 0 0 0 - - -, f 5;
#X obj 385 346 /;
#X obj 134 231 bng 15 250 50 1 empty empty play 17 7 0 10 #fcfcfc #000000
#000000;
#X obj 208 290 trigger f f;
#X obj 506 180 1;
#X obj 546 161 bng 15 250 50 0 empty empty reset\ speed 17 7 0 10 #fcfcfc
#000000 #000000;
#X obj 35 270 hradio 15 0 0 2 empty empty one/loop 0 -8 0 10 #fcfcfc
#000000 #000000 1;
#X obj 336 459 *~ 66000;
#X obj 336 484 +~ 1;
#X obj 337 434 phasor~ 0.33;
#X obj 383 389 expr 1000/$f1;
#X floatatom 35 293 5 0 0 0 - - -, f 5;
#X obj 223 557 mux~ 0 1;
#X obj 520 439 bng 15 250 50 0 empty empty stop\ (loop\ only) 17 7
0 10 #fcfcfc #000000 #000000;
#X obj 337 534 *~ 1;
#X obj 360 512 1;
#X obj 392 512 0;
#X connect 1 0 2 0;
#X connect 2 0 3 0;
#X connect 3 0 16 0;
#X connect 4 0 1 0;
#X connect 5 0 7 0;
#X connect 6 0 5 0;
#X connect 7 0 25 0;
#X connect 8 0 9 0;
#X connect 8 0 9 1;
#X connect 10 0 14 0;
#X connect 11 0 8 0;
#X connect 12 0 13 0;
#X connect 13 0 14 1;
#X connect 14 0 6 1;
#X connect 14 0 23 0;
#X connect 15 0 3 0;
#X connect 15 0 28 0;
#X connect 16 0 6 0;
#X connect 16 0 20 1;
#X connect 16 1 10 0;
#X connect 17 0 12 0;
#X connect 18 0 17 0;
#X connect 19 0 24 0;
#X connect 20 0 21 0;
#X connect 21 0 27 0;
#X connect 22 0 20 0;
#X connect 23 0 22 0;
#X connect 24 0 25 0;
#X connect 25 0 11 0;
#X connect 26 0 29 0;
#X connect 27 0 25 1;
#X connect 28 0 27 1;
#X connect 29 0 27 1;
