#N canvas 351 333 1575 645 10;
#N canvas 0 0 450 300 (subpatch) 0;
#X array array1 165372 float 6 black black;
#X coords 0 0.5 165372 -0.5 2000 140 1;
#X restore -6 7 graph;
#X msg 228 234 read slip_intro.wav array1;
#X obj 228 259 soundfiler;
#X floatatom 228 284 13 0 0 0 - - -, f 13;
#X obj 228 207 bng 15 250 50 1 empty empty empty 17 7 0 10 #fcfcfc
#000000 #000000;
#X msg 227 389 0 \, \$1 \$2;
#X obj 227 351 pack 1 2;
#X obj 227 422 line~;
#X obj 227 472 *~ 0.7;
#X obj 227 497 dac~;
#X obj 294 413 print;
#X obj 266 311 / 44.1;
#X obj 227 447 tabread4~ array1;
#X connect 1 0 2 0;
#X connect 2 0 3 0;
#X connect 3 0 6 0;
#X connect 3 0 11 0;
#X connect 4 0 1 0;
#X connect 5 0 7 0;
#X connect 5 0 10 0;
#X connect 6 0 5 0;
#X connect 7 0 12 0;
#X connect 8 0 9 0;
#X connect 8 0 9 1;
#X connect 11 0 6 1;
#X connect 12 0 8 0;
